<mxfile host="app.diagrams.net" modified="2024-03-09T13:08:58.496Z" agent="Mozilla/5.0 (X11; Linux x86_64) AppleWebKit/537.36 (KHTML, like Gecko) Chrome/122.0.0.0 Safari/537.36" etag="bJew-SUS1VAkaR5xLT3i" version="24.0.3" type="device" pages="4">
  <diagram name="Client-Server" id="FWi4dexDJomO4eUdd0e8">
    <mxGraphModel dx="2074" dy="1106" grid="0" gridSize="10" guides="1" tooltips="1" connect="1" arrows="1" fold="1" page="1" pageScale="1" pageWidth="1169" pageHeight="827" math="0" shadow="0">
      <root>
        <mxCell id="0" />
        <mxCell id="1" parent="0" />
        <mxCell id="Lw5L4zQjM9W_Kat2M2BK-36" value="&lt;font face=&quot;Atkinson Hyperlegible&quot;&gt;Request&lt;/font&gt;" style="edgeStyle=orthogonalEdgeStyle;rounded=0;orthogonalLoop=1;jettySize=auto;html=1;labelBackgroundColor=none;verticalAlign=bottom;spacingBottom=5;" parent="1" source="Lw5L4zQjM9W_Kat2M2BK-29" target="Lw5L4zQjM9W_Kat2M2BK-33" edge="1">
          <mxGeometry relative="1" as="geometry">
            <Array as="points">
              <mxPoint x="237" y="66" />
              <mxPoint x="237" y="66" />
            </Array>
          </mxGeometry>
        </mxCell>
        <mxCell id="Lw5L4zQjM9W_Kat2M2BK-29" value="" style="shape=image;verticalLabelPosition=bottom;labelBackgroundColor=none;verticalAlign=top;aspect=fixed;imageAspect=0;image=data:image/svg+xml,PHN2ZyB4bWxucz0iaHR0cDovL3d3dy53My5vcmcvMjAwMC9zdmciIHZpZXdCb3g9IjAgMCA4NTAgODUwIiB2ZXJzaW9uPSIxLjEiIGhlaWdodD0iODUwcHQiIHdpZHRoPSI4NTBwdCI+JiN4YTsgICAgPHN0eWxlIHR5cGU9InRleHQvY3NzIj4mI3hhOyAgICAgICAgLnRvcCB7JiN4YTsgICAgICAgIGZpbGw6IzZiNzI4MDsmI3hhOyAgICAgICAgfSYjeGE7ICAgICAgICAubGVmdCB7JiN4YTsgICAgICAgIGZpbGw6ICM0YjU1NjM7JiN4YTsgICAgICAgIH0mI3hhOyAgICAgICAgLnJpZ2h0IHsmI3hhOyAgICAgICAgZmlsbDojMWYyOTM3OyYjeGE7ICAgICAgICB9JiN4YTsmI3hhOyAgICAgICAgQG1lZGlhIChwcmVmZXJzLWNvbG9yLXNjaGVtZTogZGFyaykgeyYjeGE7ICAgICAgICAudG9wIHsmI3hhOyAgICAgICAgZmlsbDojZjlmYWZiOyYjeGE7ICAgICAgICB9JiN4YTsgICAgICAgIC5sZWZ0IHsmI3hhOyAgICAgICAgZmlsbDogI2U1ZTdlYjsmI3hhOyAgICAgICAgfSYjeGE7ICAgICAgICAucmlnaHQgeyYjeGE7ICAgICAgICBmaWxsOiAjOWNhM2FmOyYjeGE7ICAgICAgICB9JiN4YTsgICAgICAgIH0mI3hhOyAgICA8L3N0eWxlPiYjeGE7ICAgIDxnPiYjeGE7ICAgICAgICA8cGF0aCBkPSJNIDIzMCAyODAgbCAxNTcuMTggNzIuMzUyIGMgMjAuNjY4IDkuNTE1NiA1NC40OTYgOS41MTU2IDc1LjE0NSAwIGwgMTMyLjY0IC02MS4wNTUgbCAyMTcuNTMgLTEwMy43NCBjIC00LjU3NDIgLTMuNDMzNiAtOS4yNSAtNi41MTU2IC0xNC4xOTEgLTguNzczNCBsIC0zMTcuMDkgLTE0Ni4wMSBjIC0zMC45OTIgLTE0LjI3NyAtODEuNzQ2IC0xNC4yNzcgLTExMi43NiAwIGwgLTMxNy4xOSAxNDYuMDEgYyAtNS4wNzAzIDIuMzE2NCAtOS44NjcyIDUuNTIzNCAtMTQuNTQzIDkuMDYyNSB6IiBjbGFzcz0idG9wIi8+JiN4YTsgICAgICAgIDxwYXRoIGQ9Im0gNDIzLjM0IDQyMC45NiBjIDAgLTIyLjgwMSAtMTYuOTAyIC00OS4xNiAtMzcuNTc0IC01OC42OTUgbCAtMjM5LjQyIC0xMTAuMTUgYyAtMC4yMDcgLTAuMDgyIC0wLjM3MTEgLTAuMjUgLTAuNTc4MSAtMC4zNTE2IGwgLTEwOC4yNSAtNDkuODgzIHYgMzcyLjI1IGMgMCAzNC4xMzcgMjUuMzg3IDczLjczOCA1Ni4zOTggODguMDM1IGwgMzE3LjE5IDE0Ni4wMyBjIDIuODEyNSAxLjMwNDcgNS45NTcgMi4zMzk4IDkuMDYyNSAzLjM5NDUgbCAzLjE0NDUgLTE5My44IGwgMC4wMDM5IC0xOTYuODIgeiIgY2xhc3M9ImxlZnQiLz4mI3hhOyAgICAgICAgPHBhdGggZD0ibSA3MDguNTkgMjUwLjk2IGMgLTAuNDMzNiAwLjIyNjYgLTAuODA4NiAwLjUzOTEgLTEuMjgxMiAwLjc2NTYgbCAtMjM5LjQ2IDExMC4yMSBjIC0yMC42OTEgOS40OTYxIC0zNy41NzQgMzUuOTE4IC0zNy41NzQgNTguNjc2IHYgMTYyLjEyIGwgMC40NzY2IC0wLjAxOTUgbCAtMC43NDYxIDIyOS44IGMgNC40Njg4IC0xLjM0MzggOC43MTA5IC0yLjkzNzUgMTIuNjIxIC00LjczODMgbCAzMTcuMTcgLTE0Ni4wMyBjIDMwLjk5MiAtMTQuMjc3IDU2LjM5OCAtNTMuODc1IDU2LjM5OCAtODguMDM1IGwgLTAuMDYyNSAtMzcyLjM5IHoiIGNsYXNzPSJyaWdodCIvPiYjeGE7ICAgIDwvZz4mI3hhOzwvc3ZnPg==;shadow=1;textShadow=1;fontFamily=Atkinson Hyperlegible;fontSource=https%3A%2F%2Ffonts.googleapis.com%2Fcss%3Ffamily%3DAtkinson%2BHyperlegible;" parent="1" vertex="1">
          <mxGeometry x="41" y="30" width="93" height="93" as="geometry" />
        </mxCell>
        <mxCell id="Lw5L4zQjM9W_Kat2M2BK-30" value="Client" style="text;html=1;align=center;verticalAlign=middle;whiteSpace=wrap;rounded=0;fontFamily=Atkinson Hyperlegible;fontSource=https%3A%2F%2Ffonts.googleapis.com%2Fcss%3Ffamily%3DAtkinson%2BHyperlegible;" parent="1" vertex="1">
          <mxGeometry x="57.5" y="117" width="60" height="30" as="geometry" />
        </mxCell>
        <mxCell id="Lw5L4zQjM9W_Kat2M2BK-35" value="Response" style="edgeStyle=orthogonalEdgeStyle;rounded=0;orthogonalLoop=1;jettySize=auto;html=1;dashed=1;dashPattern=8 8;fontFamily=Atkinson Hyperlegible;fontSource=https%3A%2F%2Ffonts.googleapis.com%2Fcss%3Ffamily%3DAtkinson%2BHyperlegible;verticalAlign=top;labelBackgroundColor=none;" parent="1" source="Lw5L4zQjM9W_Kat2M2BK-33" target="Lw5L4zQjM9W_Kat2M2BK-29" edge="1">
          <mxGeometry x="-0.0014" relative="1" as="geometry">
            <Array as="points">
              <mxPoint x="237" y="86" />
              <mxPoint x="237" y="86" />
            </Array>
            <mxPoint as="offset" />
          </mxGeometry>
        </mxCell>
        <mxCell id="Lw5L4zQjM9W_Kat2M2BK-33" value="" style="shape=image;verticalLabelPosition=bottom;labelBackgroundColor=none;verticalAlign=top;aspect=fixed;imageAspect=0;image=data:image/svg+xml,PHN2ZyB4bWxucz0iaHR0cDovL3d3dy53My5vcmcvMjAwMC9zdmciIHZpZXdCb3g9IjAgMCA4NTAgODUwIiB2ZXJzaW9uPSIxLjEiIGhlaWdodD0iODUwcHQiIHdpZHRoPSI4NTBwdCI+JiN4YTsgICAgPHN0eWxlIHR5cGU9InRleHQvY3NzIj4mI3hhOyAgICAgICAgLnRvcCB7JiN4YTsgICAgICAgIGZpbGw6IzZiNzI4MDsmI3hhOyAgICAgICAgfSYjeGE7ICAgICAgICAubGVmdCB7JiN4YTsgICAgICAgIGZpbGw6ICM0YjU1NjM7JiN4YTsgICAgICAgIH0mI3hhOyAgICAgICAgLnJpZ2h0IHsmI3hhOyAgICAgICAgZmlsbDojMWYyOTM3OyYjeGE7ICAgICAgICB9JiN4YTsmI3hhOyAgICAgICAgQG1lZGlhIChwcmVmZXJzLWNvbG9yLXNjaGVtZTogZGFyaykgeyYjeGE7ICAgICAgICAudG9wIHsmI3hhOyAgICAgICAgZmlsbDojZjlmYWZiOyYjeGE7ICAgICAgICB9JiN4YTsgICAgICAgIC5sZWZ0IHsmI3hhOyAgICAgICAgZmlsbDogI2U1ZTdlYjsmI3hhOyAgICAgICAgfSYjeGE7ICAgICAgICAucmlnaHQgeyYjeGE7ICAgICAgICBmaWxsOiAjOWNhM2FmOyYjeGE7ICAgICAgICB9JiN4YTsgICAgICAgIH0mI3hhOyAgICA8L3N0eWxlPiYjeGE7ICAgIDxnPiYjeGE7ICAgICAgICA8cGF0aCBkPSJNIDIzMCAyODAgbCAxNTcuMTggNzIuMzUyIGMgMjAuNjY4IDkuNTE1NiA1NC40OTYgOS41MTU2IDc1LjE0NSAwIGwgMTMyLjY0IC02MS4wNTUgbCAyMTcuNTMgLTEwMy43NCBjIC00LjU3NDIgLTMuNDMzNiAtOS4yNSAtNi41MTU2IC0xNC4xOTEgLTguNzczNCBsIC0zMTcuMDkgLTE0Ni4wMSBjIC0zMC45OTIgLTE0LjI3NyAtODEuNzQ2IC0xNC4yNzcgLTExMi43NiAwIGwgLTMxNy4xOSAxNDYuMDEgYyAtNS4wNzAzIDIuMzE2NCAtOS44NjcyIDUuNTIzNCAtMTQuNTQzIDkuMDYyNSB6IiBjbGFzcz0idG9wIi8+JiN4YTsgICAgICAgIDxwYXRoIGQ9Im0gNDIzLjM0IDQyMC45NiBjIDAgLTIyLjgwMSAtMTYuOTAyIC00OS4xNiAtMzcuNTc0IC01OC42OTUgbCAtMjM5LjQyIC0xMTAuMTUgYyAtMC4yMDcgLTAuMDgyIC0wLjM3MTEgLTAuMjUgLTAuNTc4MSAtMC4zNTE2IGwgLTEwOC4yNSAtNDkuODgzIHYgMzcyLjI1IGMgMCAzNC4xMzcgMjUuMzg3IDczLjczOCA1Ni4zOTggODguMDM1IGwgMzE3LjE5IDE0Ni4wMyBjIDIuODEyNSAxLjMwNDcgNS45NTcgMi4zMzk4IDkuMDYyNSAzLjM5NDUgbCAzLjE0NDUgLTE5My44IGwgMC4wMDM5IC0xOTYuODIgeiIgY2xhc3M9ImxlZnQiLz4mI3hhOyAgICAgICAgPHBhdGggZD0ibSA3MDguNTkgMjUwLjk2IGMgLTAuNDMzNiAwLjIyNjYgLTAuODA4NiAwLjUzOTEgLTEuMjgxMiAwLjc2NTYgbCAtMjM5LjQ2IDExMC4yMSBjIC0yMC42OTEgOS40OTYxIC0zNy41NzQgMzUuOTE4IC0zNy41NzQgNTguNjc2IHYgMTYyLjEyIGwgMC40NzY2IC0wLjAxOTUgbCAtMC43NDYxIDIyOS44IGMgNC40Njg4IC0xLjM0MzggOC43MTA5IC0yLjkzNzUgMTIuNjIxIC00LjczODMgbCAzMTcuMTcgLTE0Ni4wMyBjIDMwLjk5MiAtMTQuMjc3IDU2LjM5OCAtNTMuODc1IDU2LjM5OCAtODguMDM1IGwgLTAuMDYyNSAtMzcyLjM5IHoiIGNsYXNzPSJyaWdodCIvPiYjeGE7ICAgIDwvZz4mI3hhOzwvc3ZnPg==;shadow=1;textShadow=1;fontFamily=Atkinson Hyperlegible;fontSource=https%3A%2F%2Ffonts.googleapis.com%2Fcss%3Ffamily%3DAtkinson%2BHyperlegible;" parent="1" vertex="1">
          <mxGeometry x="340" y="30" width="93" height="93" as="geometry" />
        </mxCell>
        <mxCell id="Lw5L4zQjM9W_Kat2M2BK-34" value="Server" style="text;html=1;align=center;verticalAlign=middle;whiteSpace=wrap;rounded=0;fontFamily=Atkinson Hyperlegible;fontSource=https%3A%2F%2Ffonts.googleapis.com%2Fcss%3Ffamily%3DAtkinson%2BHyperlegible;" parent="1" vertex="1">
          <mxGeometry x="356.5" y="117" width="60" height="30" as="geometry" />
        </mxCell>
      </root>
    </mxGraphModel>
  </diagram>
  <diagram id="fGYxBOiJzs5gf10N1rpJ" name="Broker">
    <mxGraphModel dx="2074" dy="1106" grid="1" gridSize="10" guides="1" tooltips="1" connect="1" arrows="1" fold="1" page="1" pageScale="1" pageWidth="1169" pageHeight="827" math="0" shadow="1">
      <root>
        <mxCell id="0" />
        <mxCell id="1" parent="0" />
        <mxCell id="yfdfrTJrh4Lv6cCd8YAW-5" value="Request" style="edgeStyle=orthogonalEdgeStyle;rounded=0;orthogonalLoop=1;jettySize=auto;html=1;labelBackgroundColor=none;verticalAlign=bottom;fontFamily=Atkinson Hyperlegible;fontSource=https%3A%2F%2Ffonts.googleapis.com%2Fcss%3Ffamily%3DAtkinson%2BHyperlegible;" parent="1" target="yfdfrTJrh4Lv6cCd8YAW-3" edge="1">
          <mxGeometry x="-0.0005" relative="1" as="geometry">
            <mxPoint x="381.06999999999994" y="68.99999999999989" as="sourcePoint" />
            <Array as="points">
              <mxPoint x="483" y="69" />
              <mxPoint x="483" y="69" />
            </Array>
            <mxPoint as="offset" />
          </mxGeometry>
        </mxCell>
        <mxCell id="yfdfrTJrh4Lv6cCd8YAW-7" value="&lt;font face=&quot;Atkinson Hyperlegible&quot;&gt;Response&lt;/font&gt;" style="edgeStyle=orthogonalEdgeStyle;rounded=0;orthogonalLoop=1;jettySize=auto;html=1;dashed=1;dashPattern=8 8;labelBackgroundColor=none;verticalAlign=top;spacingBottom=0;spacingTop=-5;" parent="1" target="yfdfrTJrh4Lv6cCd8YAW-1" edge="1">
          <mxGeometry relative="1" as="geometry">
            <mxPoint x="313.0799999999999" y="89.00000000000011" as="sourcePoint" />
            <Array as="points">
              <mxPoint x="244" y="89" />
              <mxPoint x="244" y="89" />
            </Array>
          </mxGeometry>
        </mxCell>
        <mxCell id="yfdfrTJrh4Lv6cCd8YAW-4" value="Request" style="edgeStyle=orthogonalEdgeStyle;rounded=0;orthogonalLoop=1;jettySize=auto;html=1;labelBackgroundColor=none;verticalAlign=bottom;spacingBottom=0;fontFamily=Atkinson Hyperlegible;fontSource=https%3A%2F%2Ffonts.googleapis.com%2Fcss%3Ffamily%3DAtkinson%2BHyperlegible;" parent="1" source="yfdfrTJrh4Lv6cCd8YAW-1" edge="1">
          <mxGeometry relative="1" as="geometry">
            <mxPoint x="313.0799999999999" y="69.00000000000011" as="targetPoint" />
            <Array as="points">
              <mxPoint x="248" y="69" />
              <mxPoint x="248" y="69" />
            </Array>
          </mxGeometry>
        </mxCell>
        <mxCell id="yfdfrTJrh4Lv6cCd8YAW-1" value="" style="shape=image;verticalLabelPosition=bottom;labelBackgroundColor=none;verticalAlign=top;aspect=fixed;imageAspect=0;image=data:image/svg+xml,PHN2ZyB4bWxucz0iaHR0cDovL3d3dy53My5vcmcvMjAwMC9zdmciIHZpZXdCb3g9IjAgMCA4NTAgODUwIiB2ZXJzaW9uPSIxLjEiIGhlaWdodD0iODUwcHQiIHdpZHRoPSI4NTBwdCI+JiN4YTsgICAgPHN0eWxlIHR5cGU9InRleHQvY3NzIj4mI3hhOyAgICAgICAgLnRvcCB7JiN4YTsgICAgICAgIGZpbGw6IzZiNzI4MDsmI3hhOyAgICAgICAgfSYjeGE7ICAgICAgICAubGVmdCB7JiN4YTsgICAgICAgIGZpbGw6ICM0YjU1NjM7JiN4YTsgICAgICAgIH0mI3hhOyAgICAgICAgLnJpZ2h0IHsmI3hhOyAgICAgICAgZmlsbDojMWYyOTM3OyYjeGE7ICAgICAgICB9JiN4YTsmI3hhOyAgICAgICAgQG1lZGlhIChwcmVmZXJzLWNvbG9yLXNjaGVtZTogZGFyaykgeyYjeGE7ICAgICAgICAudG9wIHsmI3hhOyAgICAgICAgZmlsbDojZjlmYWZiOyYjeGE7ICAgICAgICB9JiN4YTsgICAgICAgIC5sZWZ0IHsmI3hhOyAgICAgICAgZmlsbDogI2U1ZTdlYjsmI3hhOyAgICAgICAgfSYjeGE7ICAgICAgICAucmlnaHQgeyYjeGE7ICAgICAgICBmaWxsOiAjOWNhM2FmOyYjeGE7ICAgICAgICB9JiN4YTsgICAgICAgIH0mI3hhOyAgICA8L3N0eWxlPiYjeGE7ICAgIDxnPiYjeGE7ICAgICAgICA8cGF0aCBkPSJNIDIzMCAyODAgbCAxNTcuMTggNzIuMzUyIGMgMjAuNjY4IDkuNTE1NiA1NC40OTYgOS41MTU2IDc1LjE0NSAwIGwgMTMyLjY0IC02MS4wNTUgbCAyMTcuNTMgLTEwMy43NCBjIC00LjU3NDIgLTMuNDMzNiAtOS4yNSAtNi41MTU2IC0xNC4xOTEgLTguNzczNCBsIC0zMTcuMDkgLTE0Ni4wMSBjIC0zMC45OTIgLTE0LjI3NyAtODEuNzQ2IC0xNC4yNzcgLTExMi43NiAwIGwgLTMxNy4xOSAxNDYuMDEgYyAtNS4wNzAzIDIuMzE2NCAtOS44NjcyIDUuNTIzNCAtMTQuNTQzIDkuMDYyNSB6IiBjbGFzcz0idG9wIi8+JiN4YTsgICAgICAgIDxwYXRoIGQ9Im0gNDIzLjM0IDQyMC45NiBjIDAgLTIyLjgwMSAtMTYuOTAyIC00OS4xNiAtMzcuNTc0IC01OC42OTUgbCAtMjM5LjQyIC0xMTAuMTUgYyAtMC4yMDcgLTAuMDgyIC0wLjM3MTEgLTAuMjUgLTAuNTc4MSAtMC4zNTE2IGwgLTEwOC4yNSAtNDkuODgzIHYgMzcyLjI1IGMgMCAzNC4xMzcgMjUuMzg3IDczLjczOCA1Ni4zOTggODguMDM1IGwgMzE3LjE5IDE0Ni4wMyBjIDIuODEyNSAxLjMwNDcgNS45NTcgMi4zMzk4IDkuMDYyNSAzLjM5NDUgbCAzLjE0NDUgLTE5My44IGwgMC4wMDM5IC0xOTYuODIgeiIgY2xhc3M9ImxlZnQiLz4mI3hhOyAgICAgICAgPHBhdGggZD0ibSA3MDguNTkgMjUwLjk2IGMgLTAuNDMzNiAwLjIyNjYgLTAuODA4NiAwLjUzOTEgLTEuMjgxMiAwLjc2NTYgbCAtMjM5LjQ2IDExMC4yMSBjIC0yMC42OTEgOS40OTYxIC0zNy41NzQgMzUuOTE4IC0zNy41NzQgNTguNjc2IHYgMTYyLjEyIGwgMC40NzY2IC0wLjAxOTUgbCAtMC43NDYxIDIyOS44IGMgNC40Njg4IC0xLjM0MzggOC43MTA5IC0yLjkzNzUgMTIuNjIxIC00LjczODMgbCAzMTcuMTcgLTE0Ni4wMyBjIDMwLjk5MiAtMTQuMjc3IDU2LjM5OCAtNTMuODc1IDU2LjM5OCAtODguMDM1IGwgLTAuMDYyNSAtMzcyLjM5IHoiIGNsYXNzPSJyaWdodCIvPiYjeGE7ICAgIDwvZz4mI3hhOzwvc3ZnPg==;shadow=1;textShadow=1;fontFamily=Atkinson Hyperlegible;fontSource=https%3A%2F%2Ffonts.googleapis.com%2Fcss%3Ffamily%3DAtkinson%2BHyperlegible;" parent="1" vertex="1">
          <mxGeometry x="90" y="30" width="93" height="93" as="geometry" />
        </mxCell>
        <mxCell id="yfdfrTJrh4Lv6cCd8YAW-8" value="&lt;font data-font-src=&quot;https://fonts.googleapis.com/css?family=Atkinson+Hyperlegible&quot; face=&quot;Atkinson Hyperlegible&quot;&gt;Response&lt;/font&gt;" style="edgeStyle=orthogonalEdgeStyle;rounded=0;orthogonalLoop=1;jettySize=auto;html=1;labelBackgroundColor=none;verticalAlign=top;spacingTop=-5;dashed=1;dashPattern=8 8;" parent="1" source="yfdfrTJrh4Lv6cCd8YAW-3" edge="1">
          <mxGeometry relative="1" as="geometry">
            <mxPoint x="381.06999999999994" y="90" as="targetPoint" />
            <Array as="points">
              <mxPoint x="446" y="90" />
              <mxPoint x="446" y="90" />
            </Array>
          </mxGeometry>
        </mxCell>
        <mxCell id="yfdfrTJrh4Lv6cCd8YAW-3" value="" style="shape=image;verticalLabelPosition=bottom;labelBackgroundColor=none;verticalAlign=top;aspect=fixed;imageAspect=0;image=data:image/svg+xml,PHN2ZyB4bWxucz0iaHR0cDovL3d3dy53My5vcmcvMjAwMC9zdmciIHZpZXdCb3g9IjAgMCA4NTAgODUwIiB2ZXJzaW9uPSIxLjEiIGhlaWdodD0iODUwcHQiIHdpZHRoPSI4NTBwdCI+JiN4YTsgICAgPHN0eWxlIHR5cGU9InRleHQvY3NzIj4mI3hhOyAgICAgICAgLnRvcCB7JiN4YTsgICAgICAgIGZpbGw6IzZiNzI4MDsmI3hhOyAgICAgICAgfSYjeGE7ICAgICAgICAubGVmdCB7JiN4YTsgICAgICAgIGZpbGw6ICM0YjU1NjM7JiN4YTsgICAgICAgIH0mI3hhOyAgICAgICAgLnJpZ2h0IHsmI3hhOyAgICAgICAgZmlsbDojMWYyOTM3OyYjeGE7ICAgICAgICB9JiN4YTsmI3hhOyAgICAgICAgQG1lZGlhIChwcmVmZXJzLWNvbG9yLXNjaGVtZTogZGFyaykgeyYjeGE7ICAgICAgICAudG9wIHsmI3hhOyAgICAgICAgZmlsbDojZjlmYWZiOyYjeGE7ICAgICAgICB9JiN4YTsgICAgICAgIC5sZWZ0IHsmI3hhOyAgICAgICAgZmlsbDogI2U1ZTdlYjsmI3hhOyAgICAgICAgfSYjeGE7ICAgICAgICAucmlnaHQgeyYjeGE7ICAgICAgICBmaWxsOiAjOWNhM2FmOyYjeGE7ICAgICAgICB9JiN4YTsgICAgICAgIH0mI3hhOyAgICA8L3N0eWxlPiYjeGE7ICAgIDxnPiYjeGE7ICAgICAgICA8cGF0aCBkPSJNIDIzMCAyODAgbCAxNTcuMTggNzIuMzUyIGMgMjAuNjY4IDkuNTE1NiA1NC40OTYgOS41MTU2IDc1LjE0NSAwIGwgMTMyLjY0IC02MS4wNTUgbCAyMTcuNTMgLTEwMy43NCBjIC00LjU3NDIgLTMuNDMzNiAtOS4yNSAtNi41MTU2IC0xNC4xOTEgLTguNzczNCBsIC0zMTcuMDkgLTE0Ni4wMSBjIC0zMC45OTIgLTE0LjI3NyAtODEuNzQ2IC0xNC4yNzcgLTExMi43NiAwIGwgLTMxNy4xOSAxNDYuMDEgYyAtNS4wNzAzIDIuMzE2NCAtOS44NjcyIDUuNTIzNCAtMTQuNTQzIDkuMDYyNSB6IiBjbGFzcz0idG9wIi8+JiN4YTsgICAgICAgIDxwYXRoIGQ9Im0gNDIzLjM0IDQyMC45NiBjIDAgLTIyLjgwMSAtMTYuOTAyIC00OS4xNiAtMzcuNTc0IC01OC42OTUgbCAtMjM5LjQyIC0xMTAuMTUgYyAtMC4yMDcgLTAuMDgyIC0wLjM3MTEgLTAuMjUgLTAuNTc4MSAtMC4zNTE2IGwgLTEwOC4yNSAtNDkuODgzIHYgMzcyLjI1IGMgMCAzNC4xMzcgMjUuMzg3IDczLjczOCA1Ni4zOTggODguMDM1IGwgMzE3LjE5IDE0Ni4wMyBjIDIuODEyNSAxLjMwNDcgNS45NTcgMi4zMzk4IDkuMDYyNSAzLjM5NDUgbCAzLjE0NDUgLTE5My44IGwgMC4wMDM5IC0xOTYuODIgeiIgY2xhc3M9ImxlZnQiLz4mI3hhOyAgICAgICAgPHBhdGggZD0ibSA3MDguNTkgMjUwLjk2IGMgLTAuNDMzNiAwLjIyNjYgLTAuODA4NiAwLjUzOTEgLTEuMjgxMiAwLjc2NTYgbCAtMjM5LjQ2IDExMC4yMSBjIC0yMC42OTEgOS40OTYxIC0zNy41NzQgMzUuOTE4IC0zNy41NzQgNTguNjc2IHYgMTYyLjEyIGwgMC40NzY2IC0wLjAxOTUgbCAtMC43NDYxIDIyOS44IGMgNC40Njg4IC0xLjM0MzggOC43MTA5IC0yLjkzNzUgMTIuNjIxIC00LjczODMgbCAzMTcuMTcgLTE0Ni4wMyBjIDMwLjk5MiAtMTQuMjc3IDU2LjM5OCAtNTMuODc1IDU2LjM5OCAtODguMDM1IGwgLTAuMDYyNSAtMzcyLjM5IHoiIGNsYXNzPSJyaWdodCIvPiYjeGE7ICAgIDwvZz4mI3hhOzwvc3ZnPg==;shadow=1;textShadow=1;fontFamily=Atkinson Hyperlegible;fontSource=https%3A%2F%2Ffonts.googleapis.com%2Fcss%3Ffamily%3DAtkinson%2BHyperlegible;" parent="1" vertex="1">
          <mxGeometry x="513.5" y="30" width="93" height="93" as="geometry" />
        </mxCell>
        <mxCell id="sAlcsNE6bz9asQmO-AkL-1" value="Client" style="text;html=1;align=center;verticalAlign=middle;whiteSpace=wrap;rounded=0;fontFamily=Atkinson Hyperlegible;fontSource=https%3A%2F%2Ffonts.googleapis.com%2Fcss%3Ffamily%3DAtkinson%2BHyperlegible;" parent="1" vertex="1">
          <mxGeometry x="106.5" y="117" width="60" height="30" as="geometry" />
        </mxCell>
        <mxCell id="sAlcsNE6bz9asQmO-AkL-2" value="Provider" style="text;html=1;align=center;verticalAlign=middle;whiteSpace=wrap;rounded=0;fontFamily=Atkinson Hyperlegible;fontSource=https%3A%2F%2Ffonts.googleapis.com%2Fcss%3Ffamily%3DAtkinson%2BHyperlegible;" parent="1" vertex="1">
          <mxGeometry x="530" y="117" width="60" height="30" as="geometry" />
        </mxCell>
        <mxCell id="sAlcsNE6bz9asQmO-AkL-3" value="Event" style="edgeStyle=orthogonalEdgeStyle;rounded=0;orthogonalLoop=1;jettySize=auto;html=1;labelBackgroundColor=none;verticalAlign=bottom;fontFamily=Atkinson Hyperlegible;fontSource=https%3A%2F%2Ffonts.googleapis.com%2Fcss%3Ffamily%3DAtkinson%2BHyperlegible;endArrow=open;endFill=0;" parent="1" source="9m-ukCCPoDj5A7fLVeqM-7" target="sAlcsNE6bz9asQmO-AkL-9" edge="1">
          <mxGeometry relative="1" as="geometry">
            <Array as="points" />
            <mxPoint x="383.93000000000006" y="216.57142857142856" as="sourcePoint" />
          </mxGeometry>
        </mxCell>
        <mxCell id="sAlcsNE6bz9asQmO-AkL-6" value="Event" style="edgeStyle=orthogonalEdgeStyle;rounded=0;orthogonalLoop=1;jettySize=auto;html=1;labelBackgroundColor=none;verticalAlign=bottom;spacingBottom=0;fontFamily=Atkinson Hyperlegible;fontSource=https%3A%2F%2Ffonts.googleapis.com%2Fcss%3Ffamily%3DAtkinson%2BHyperlegible;endArrow=open;endFill=0;" parent="1" source="sAlcsNE6bz9asQmO-AkL-7" target="9m-ukCCPoDj5A7fLVeqM-7" edge="1">
          <mxGeometry relative="1" as="geometry">
            <Array as="points" />
            <mxPoint x="309.22" y="216.57142857142856" as="targetPoint" />
          </mxGeometry>
        </mxCell>
        <mxCell id="sAlcsNE6bz9asQmO-AkL-7" value="" style="shape=image;verticalLabelPosition=bottom;labelBackgroundColor=none;verticalAlign=top;aspect=fixed;imageAspect=0;image=data:image/svg+xml,PHN2ZyB4bWxucz0iaHR0cDovL3d3dy53My5vcmcvMjAwMC9zdmciIHZpZXdCb3g9IjAgMCA4NTAgODUwIiB2ZXJzaW9uPSIxLjEiIGhlaWdodD0iODUwcHQiIHdpZHRoPSI4NTBwdCI+JiN4YTsgICAgPHN0eWxlIHR5cGU9InRleHQvY3NzIj4mI3hhOyAgICAgICAgLnRvcCB7JiN4YTsgICAgICAgIGZpbGw6IzZiNzI4MDsmI3hhOyAgICAgICAgfSYjeGE7ICAgICAgICAubGVmdCB7JiN4YTsgICAgICAgIGZpbGw6ICM0YjU1NjM7JiN4YTsgICAgICAgIH0mI3hhOyAgICAgICAgLnJpZ2h0IHsmI3hhOyAgICAgICAgZmlsbDojMWYyOTM3OyYjeGE7ICAgICAgICB9JiN4YTsmI3hhOyAgICAgICAgQG1lZGlhIChwcmVmZXJzLWNvbG9yLXNjaGVtZTogZGFyaykgeyYjeGE7ICAgICAgICAudG9wIHsmI3hhOyAgICAgICAgZmlsbDojZjlmYWZiOyYjeGE7ICAgICAgICB9JiN4YTsgICAgICAgIC5sZWZ0IHsmI3hhOyAgICAgICAgZmlsbDogI2U1ZTdlYjsmI3hhOyAgICAgICAgfSYjeGE7ICAgICAgICAucmlnaHQgeyYjeGE7ICAgICAgICBmaWxsOiAjOWNhM2FmOyYjeGE7ICAgICAgICB9JiN4YTsgICAgICAgIH0mI3hhOyAgICA8L3N0eWxlPiYjeGE7ICAgIDxnPiYjeGE7ICAgICAgICA8cGF0aCBkPSJNIDIzMCAyODAgbCAxNTcuMTggNzIuMzUyIGMgMjAuNjY4IDkuNTE1NiA1NC40OTYgOS41MTU2IDc1LjE0NSAwIGwgMTMyLjY0IC02MS4wNTUgbCAyMTcuNTMgLTEwMy43NCBjIC00LjU3NDIgLTMuNDMzNiAtOS4yNSAtNi41MTU2IC0xNC4xOTEgLTguNzczNCBsIC0zMTcuMDkgLTE0Ni4wMSBjIC0zMC45OTIgLTE0LjI3NyAtODEuNzQ2IC0xNC4yNzcgLTExMi43NiAwIGwgLTMxNy4xOSAxNDYuMDEgYyAtNS4wNzAzIDIuMzE2NCAtOS44NjcyIDUuNTIzNCAtMTQuNTQzIDkuMDYyNSB6IiBjbGFzcz0idG9wIi8+JiN4YTsgICAgICAgIDxwYXRoIGQ9Im0gNDIzLjM0IDQyMC45NiBjIDAgLTIyLjgwMSAtMTYuOTAyIC00OS4xNiAtMzcuNTc0IC01OC42OTUgbCAtMjM5LjQyIC0xMTAuMTUgYyAtMC4yMDcgLTAuMDgyIC0wLjM3MTEgLTAuMjUgLTAuNTc4MSAtMC4zNTE2IGwgLTEwOC4yNSAtNDkuODgzIHYgMzcyLjI1IGMgMCAzNC4xMzcgMjUuMzg3IDczLjczOCA1Ni4zOTggODguMDM1IGwgMzE3LjE5IDE0Ni4wMyBjIDIuODEyNSAxLjMwNDcgNS45NTcgMi4zMzk4IDkuMDYyNSAzLjM5NDUgbCAzLjE0NDUgLTE5My44IGwgMC4wMDM5IC0xOTYuODIgeiIgY2xhc3M9ImxlZnQiLz4mI3hhOyAgICAgICAgPHBhdGggZD0ibSA3MDguNTkgMjUwLjk2IGMgLTAuNDMzNiAwLjIyNjYgLTAuODA4NiAwLjUzOTEgLTEuMjgxMiAwLjc2NTYgbCAtMjM5LjQ2IDExMC4yMSBjIC0yMC42OTEgOS40OTYxIC0zNy41NzQgMzUuOTE4IC0zNy41NzQgNTguNjc2IHYgMTYyLjEyIGwgMC40NzY2IC0wLjAxOTUgbCAtMC43NDYxIDIyOS44IGMgNC40Njg4IC0xLjM0MzggOC43MTA5IC0yLjkzNzUgMTIuNjIxIC00LjczODMgbCAzMTcuMTcgLTE0Ni4wMyBjIDMwLjk5MiAtMTQuMjc3IDU2LjM5OCAtNTMuODc1IDU2LjM5OCAtODguMDM1IGwgLTAuMDYyNSAtMzcyLjM5IHoiIGNsYXNzPSJyaWdodCIvPiYjeGE7ICAgIDwvZz4mI3hhOzwvc3ZnPg==;shadow=1;textShadow=1;fontFamily=Atkinson Hyperlegible;fontSource=https%3A%2F%2Ffonts.googleapis.com%2Fcss%3Ffamily%3DAtkinson%2BHyperlegible;" parent="1" vertex="1">
          <mxGeometry x="90" y="170" width="93" height="93" as="geometry" />
        </mxCell>
        <mxCell id="sAlcsNE6bz9asQmO-AkL-9" value="" style="shape=image;verticalLabelPosition=bottom;labelBackgroundColor=none;verticalAlign=top;aspect=fixed;imageAspect=0;image=data:image/svg+xml,PHN2ZyB4bWxucz0iaHR0cDovL3d3dy53My5vcmcvMjAwMC9zdmciIHZpZXdCb3g9IjAgMCA4NTAgODUwIiB2ZXJzaW9uPSIxLjEiIGhlaWdodD0iODUwcHQiIHdpZHRoPSI4NTBwdCI+JiN4YTsgICAgPHN0eWxlIHR5cGU9InRleHQvY3NzIj4mI3hhOyAgICAgICAgLnRvcCB7JiN4YTsgICAgICAgIGZpbGw6IzZiNzI4MDsmI3hhOyAgICAgICAgfSYjeGE7ICAgICAgICAubGVmdCB7JiN4YTsgICAgICAgIGZpbGw6ICM0YjU1NjM7JiN4YTsgICAgICAgIH0mI3hhOyAgICAgICAgLnJpZ2h0IHsmI3hhOyAgICAgICAgZmlsbDojMWYyOTM3OyYjeGE7ICAgICAgICB9JiN4YTsmI3hhOyAgICAgICAgQG1lZGlhIChwcmVmZXJzLWNvbG9yLXNjaGVtZTogZGFyaykgeyYjeGE7ICAgICAgICAudG9wIHsmI3hhOyAgICAgICAgZmlsbDojZjlmYWZiOyYjeGE7ICAgICAgICB9JiN4YTsgICAgICAgIC5sZWZ0IHsmI3hhOyAgICAgICAgZmlsbDogI2U1ZTdlYjsmI3hhOyAgICAgICAgfSYjeGE7ICAgICAgICAucmlnaHQgeyYjeGE7ICAgICAgICBmaWxsOiAjOWNhM2FmOyYjeGE7ICAgICAgICB9JiN4YTsgICAgICAgIH0mI3hhOyAgICA8L3N0eWxlPiYjeGE7ICAgIDxnPiYjeGE7ICAgICAgICA8cGF0aCBkPSJNIDIzMCAyODAgbCAxNTcuMTggNzIuMzUyIGMgMjAuNjY4IDkuNTE1NiA1NC40OTYgOS41MTU2IDc1LjE0NSAwIGwgMTMyLjY0IC02MS4wNTUgbCAyMTcuNTMgLTEwMy43NCBjIC00LjU3NDIgLTMuNDMzNiAtOS4yNSAtNi41MTU2IC0xNC4xOTEgLTguNzczNCBsIC0zMTcuMDkgLTE0Ni4wMSBjIC0zMC45OTIgLTE0LjI3NyAtODEuNzQ2IC0xNC4yNzcgLTExMi43NiAwIGwgLTMxNy4xOSAxNDYuMDEgYyAtNS4wNzAzIDIuMzE2NCAtOS44NjcyIDUuNTIzNCAtMTQuNTQzIDkuMDYyNSB6IiBjbGFzcz0idG9wIi8+JiN4YTsgICAgICAgIDxwYXRoIGQ9Im0gNDIzLjM0IDQyMC45NiBjIDAgLTIyLjgwMSAtMTYuOTAyIC00OS4xNiAtMzcuNTc0IC01OC42OTUgbCAtMjM5LjQyIC0xMTAuMTUgYyAtMC4yMDcgLTAuMDgyIC0wLjM3MTEgLTAuMjUgLTAuNTc4MSAtMC4zNTE2IGwgLTEwOC4yNSAtNDkuODgzIHYgMzcyLjI1IGMgMCAzNC4xMzcgMjUuMzg3IDczLjczOCA1Ni4zOTggODguMDM1IGwgMzE3LjE5IDE0Ni4wMyBjIDIuODEyNSAxLjMwNDcgNS45NTcgMi4zMzk4IDkuMDYyNSAzLjM5NDUgbCAzLjE0NDUgLTE5My44IGwgMC4wMDM5IC0xOTYuODIgeiIgY2xhc3M9ImxlZnQiLz4mI3hhOyAgICAgICAgPHBhdGggZD0ibSA3MDguNTkgMjUwLjk2IGMgLTAuNDMzNiAwLjIyNjYgLTAuODA4NiAwLjUzOTEgLTEuMjgxMiAwLjc2NTYgbCAtMjM5LjQ2IDExMC4yMSBjIC0yMC42OTEgOS40OTYxIC0zNy41NzQgMzUuOTE4IC0zNy41NzQgNTguNjc2IHYgMTYyLjEyIGwgMC40NzY2IC0wLjAxOTUgbCAtMC43NDYxIDIyOS44IGMgNC40Njg4IC0xLjM0MzggOC43MTA5IC0yLjkzNzUgMTIuNjIxIC00LjczODMgbCAzMTcuMTcgLTE0Ni4wMyBjIDMwLjk5MiAtMTQuMjc3IDU2LjM5OCAtNTMuODc1IDU2LjM5OCAtODguMDM1IGwgLTAuMDYyNSAtMzcyLjM5IHoiIGNsYXNzPSJyaWdodCIvPiYjeGE7ICAgIDwvZz4mI3hhOzwvc3ZnPg==;shadow=1;textShadow=1;fontFamily=Atkinson Hyperlegible;fontSource=https%3A%2F%2Ffonts.googleapis.com%2Fcss%3Ffamily%3DAtkinson%2BHyperlegible;" parent="1" vertex="1">
          <mxGeometry x="513.5" y="170" width="93" height="93" as="geometry" />
        </mxCell>
        <mxCell id="sAlcsNE6bz9asQmO-AkL-10" value="Producer" style="text;html=1;align=center;verticalAlign=middle;whiteSpace=wrap;rounded=0;fontFamily=Atkinson Hyperlegible;fontSource=https%3A%2F%2Ffonts.googleapis.com%2Fcss%3Ffamily%3DAtkinson%2BHyperlegible;" parent="1" vertex="1">
          <mxGeometry x="106.5" y="257" width="60" height="30" as="geometry" />
        </mxCell>
        <mxCell id="sAlcsNE6bz9asQmO-AkL-11" value="Consumer" style="text;html=1;align=center;verticalAlign=middle;whiteSpace=wrap;rounded=0;fontFamily=Atkinson Hyperlegible;fontSource=https%3A%2F%2Ffonts.googleapis.com%2Fcss%3Ffamily%3DAtkinson%2BHyperlegible;" parent="1" vertex="1">
          <mxGeometry x="530" y="257" width="60" height="30" as="geometry" />
        </mxCell>
        <mxCell id="9m-ukCCPoDj5A7fLVeqM-2" value="Integration Broker" style="text;html=1;align=center;verticalAlign=middle;whiteSpace=wrap;rounded=0;fontFamily=Atkinson Hyperlegible;fontSource=https%3A%2F%2Ffonts.googleapis.com%2Fcss%3Ffamily%3DAtkinson%2BHyperlegible;" parent="1" vertex="1">
          <mxGeometry x="297.10999999999996" y="117" width="98.93" height="30" as="geometry" />
        </mxCell>
        <mxCell id="9m-ukCCPoDj5A7fLVeqM-4" value="Message Broker" style="text;html=1;align=center;verticalAlign=middle;whiteSpace=wrap;rounded=0;fontFamily=Atkinson Hyperlegible;fontSource=https%3A%2F%2Ffonts.googleapis.com%2Fcss%3Ffamily%3DAtkinson%2BHyperlegible;" parent="1" vertex="1">
          <mxGeometry x="297.10999999999996" y="257" width="98.93" height="30" as="geometry" />
        </mxCell>
        <mxCell id="9m-ukCCPoDj5A7fLVeqM-7" value="" style="shape=image;verticalLabelPosition=bottom;labelBackgroundColor=default;verticalAlign=top;aspect=fixed;imageAspect=0;image=data:image/svg+xml,PHN2ZyB4bWxucz0iaHR0cDovL3d3dy53My5vcmcvMjAwMC9zdmciIHZpZXdCb3g9IjAgMCA4NTAgODUwIiB2ZXJzaW9uPSIxLjEiIGhlaWdodD0iODUwcHQiIHdpZHRoPSI4NTBwdCI+JiN4YTsgICAgPGRlZnM+JiN4YTsgICAgICAgIDxzdHlsZSB0eXBlPSJ0ZXh0L2NzcyI+JiN4YTsgICAgICAgICAgICAudG9wIHsmI3hhOyAgICAgICAgICAgIGZpbGw6IzZiNzI4MDsmI3hhOyAgICAgICAgICAgIHN0cm9rZTogYmxhY2s7JiN4YTsgICAgICAgICAgICBzdHJva2Utd2lkdGg6IDI7JiN4YTsgICAgICAgICAgICB9JiN4YTsgICAgICAgICAgICAubGVmdCB7JiN4YTsgICAgICAgICAgICBmaWxsOiAjNGI1NTYzOyYjeGE7ICAgICAgICAgICAgc3Ryb2tlOiBibGFjazsmI3hhOyAgICAgICAgICAgIHN0cm9rZS13aWR0aDogMjsmI3hhOyAgICAgICAgICAgIH0mI3hhOyAgICAgICAgICAgIC5yaWdodCB7JiN4YTsgICAgICAgICAgICBmaWxsOiMxZjI5Mzc7JiN4YTsgICAgICAgICAgICBzdHJva2U6IGJsYWNrOyYjeGE7ICAgICAgICAgICAgc3Ryb2tlLXdpZHRoOiAyOyYjeGE7ICAgICAgICAgICAgfSYjeGE7ICAgICAgICAgICAgLmVudmVsb3BlIHsmI3hhOyAgICAgICAgICAgIGZpbGw6ICNlNWU3ZWI7JiN4YTsgICAgICAgICAgICBzdHJva2U6ICMzNzQxNTE7JiN4YTsgICAgICAgICAgICBzdHJva2Utd2lkdGg6IDE0OyYjeGE7ICAgICAgICAgICAgfSYjeGE7JiN4YTsgICAgICAgICAgICBAbWVkaWEgKHByZWZlcnMtY29sb3Itc2NoZW1lOiBkYXJrKSB7JiN4YTsgICAgICAgICAgICAudG9wIHsmI3hhOyAgICAgICAgICAgIGZpbGw6I2Y5ZmFmYjsmI3hhOyAgICAgICAgICAgIHN0cm9rZTogd2hpdGU7JiN4YTsgICAgICAgICAgICBzdHJva2Utd2lkdGg6IDI7JiN4YTsgICAgICAgICAgICB9JiN4YTsgICAgICAgICAgICAubGVmdCB7JiN4YTsgICAgICAgICAgICBmaWxsOiAjZTVlN2ViOyYjeGE7ICAgICAgICAgICAgc3Ryb2tlOiB3aGl0ZTsmI3hhOyAgICAgICAgICAgIHN0cm9rZS13aWR0aDogMjsmI3hhOyAgICAgICAgICAgIH0mI3hhOyAgICAgICAgICAgIC5yaWdodCB7JiN4YTsgICAgICAgICAgICBmaWxsOiAjOWNhM2FmOyYjeGE7ICAgICAgICAgICAgc3Ryb2tlOiB3aGl0ZTsmI3hhOyAgICAgICAgICAgIHN0cm9rZS13aWR0aDogMjsmI3hhOyAgICAgICAgICAgIH0mI3hhOyAgICAgICAgICAgIC5lbnZlbG9wZSB7JiN4YTsgICAgICAgICAgICBmaWxsOiAjZjlmYWZiOyYjeGE7ICAgICAgICAgICAgc3Ryb2tlOiAjMzc0MTUxOyYjeGE7ICAgICAgICAgICAgc3Ryb2tlLXdpZHRoOiA4OyYjeGE7ICAgICAgICAgICAgfSYjeGE7ICAgICAgICAgICAgfSYjeGE7ICAgICAgICA8L3N0eWxlPiYjeGE7ICAgIDwvZGVmcz4mI3hhOyAgICA8Zz4mI3hhOyAgICAgICAgPHBhdGggZD0iTSAyMzAgMjgwIGwgMTU3LjE4IDcyLjM1MiBjIDIwLjY2OCA5LjUxNTYgNTQuNDk2IDkuNTE1NiA3NS4xNDUgMCBsIDEzMi42NCAtNjEuMDU1IGwgMjE3LjUzIC0xMDMuNzQgYyAtNC41NzQyIC0zLjQzMzYgLTkuMjUgLTYuNTE1NiAtMTQuMTkxIC04Ljc3MzQgbCAtMzE3LjA5IC0xNDYuMDEgYyAtMzAuOTkyIC0xNC4yNzcgLTgxLjc0NiAtMTQuMjc3IC0xMTIuNzYgMCBsIC0zMTcuMTkgMTQ2LjAxIGMgLTUuMDcwMyAyLjMxNjQgLTkuODY3MiA1LjUyMzQgLTE0LjU0MyA5LjA2MjUgeiIgY2xhc3M9InRvcCIvPiYjeGE7ICAgICAgICA8cGF0aCBkPSJtIDQyMy4zNCA0MjAuOTYgYyAwIC0yMi44MDEgLTE2LjkwMiAtNDkuMTYgLTM3LjU3NCAtNTguNjk1IGwgLTIzOS40MiAtMTEwLjE1IGMgLTAuMjA3IC0wLjA4MiAtMC4zNzExIC0wLjI1IC0wLjU3ODEgLTAuMzUxNiBsIC0xMDguMjUgLTQ5Ljg4MyB2IDM3Mi4yNSBjIDAgMzQuMTM3IDI1LjM4NyA3My43MzggNTYuMzk4IDg4LjAzNSBsIDMxNy4xOSAxNDYuMDMgYyAyLjgxMjUgMS4zMDQ3IDUuOTU3IDIuMzM5OCA5LjA2MjUgMy4zOTQ1IGwgMy4xNDQ1IC0xOTMuOCBsIDAuMDAzOSAtMTk2LjgyIHoiIGNsYXNzPSJsZWZ0Ii8+JiN4YTsgICAgICAgIDxwYXRoIGQ9Im0gNzA4LjU5IDI1MC45NiBjIC0wLjQzMzYgMC4yMjY2IC0wLjgwODYgMC41MzkxIC0xLjI4MTIgMC43NjU2IGwgLTIzOS40NiAxMTAuMjEgYyAtMjAuNjkxIDkuNDk2MSAtMzcuNTc0IDM1LjkxOCAtMzcuNTc0IDU4LjY3NiB2IDE2Mi4xMiBsIDAuNDc2NiAtMC4wMTk1IGwgLTAuNzQ2MSAyMjkuOCBjIDQuNDY4OCAtMS4zNDM4IDguNzEwOSAtMi45Mzc1IDEyLjYyMSAtNC43MzgzIGwgMzE3LjE3IC0xNDYuMDMgYyAzMC45OTIgLTE0LjI3NyA1Ni4zOTggLTUzLjg3NSA1Ni4zOTggLTg4LjAzNSBsIC0wLjA2MjUgLTM3Mi4zOSB6IiBjbGFzcz0icmlnaHQiLz4mI3hhOyAgICAgICAgPHBhdGggZD0ibSA3NzEuNjcyIDgzMS45OCBDIDc5OC4yOTIgODMxLjk4IDgyNC45MTIgODA1LjM2IDgyNC45MTIgNzc4Ljc0IEwgODI0LjkxMiA1NjMuMTE4IEMgODI0LjkxMiA1MzYuNDk4IDgwMC45NTQgNTA5Ljg3OCA3NzQuMzM0IDUwOS44NzggTCAyODkuODUgNTA5Ljg3OCBDIDI2My4yMyA1MDkuODc4IDIzOS4yNzIgNTM5LjE2IDIzOS4yNzIgNTY1Ljc4IEwgMjM5LjI3MiA3NzguNzQgQyAyMzkuMjcyIDgxNi4wMDggMjYzLjIzIDgzMS45OCAzMDMuMTYgODMxLjk4IEwgNzcxLjY3MiA4MzEuOTggTSAyNTIuNTgyIDUzMS4xNzQgTCA0NDkuNTcgNjM3LjY1NCBDIDUyOS40MyA2NzcuNTg0IDUyOS40MyA2NzcuNTg0IDYwOS4yOSA2MzcuNjU0IEwgODExLjYwMiA1MzEuMTc0IE0gNDQ5LjU3IDYzNy42NTQgTCAyNTIuNTgyIDgxNi4wMDggTSA2MDkuMjkgNjM3LjY1NCBMIDgwNi4yNzggODE2LjAwOCB6IiBjbGFzcz0iZW52ZWxvcGUiLz4mI3hhOyAgICA8L2c+JiN4YTs8L3N2Zz4=;" parent="1" vertex="1">
          <mxGeometry x="316.58" y="186.5" width="60" height="60" as="geometry" />
        </mxCell>
        <mxCell id="BcrlAv-XWsAtq3qUbOwO-4" value="" style="shape=image;verticalLabelPosition=bottom;labelBackgroundColor=default;verticalAlign=top;aspect=fixed;imageAspect=0;image=data:image/svg+xml,PHN2ZyB4bWxucz0iaHR0cDovL3d3dy53My5vcmcvMjAwMC9zdmciIHZpZXdCb3g9IjAgMCA4NTAgODUwIiB2ZXJzaW9uPSIxLjEiIGhlaWdodD0iODUwcHQiIHdpZHRoPSI4NTBwdCI+JiN4YTsgICAgPGRlZnM+JiN4YTsgICAgICAgIDxzdHlsZSB0eXBlPSJ0ZXh0L2NzcyI+JiN4YTsgICAgICAgICAgICAudG9wIHsmI3hhOyAgICAgICAgICAgIGZpbGw6IzZiNzI4MDsmI3hhOyAgICAgICAgICAgIHN0cm9rZTogYmxhY2s7JiN4YTsgICAgICAgICAgICBzdHJva2Utd2lkdGg6IDI7JiN4YTsgICAgICAgICAgICB9JiN4YTsgICAgICAgICAgICAubGVmdCB7JiN4YTsgICAgICAgICAgICBmaWxsOiAjNGI1NTYzOyYjeGE7ICAgICAgICAgICAgc3Ryb2tlOiBibGFjazsmI3hhOyAgICAgICAgICAgIHN0cm9rZS13aWR0aDogMjsmI3hhOyAgICAgICAgICAgIH0mI3hhOyAgICAgICAgICAgIC5yaWdodCB7JiN4YTsgICAgICAgICAgICBmaWxsOiMxZjI5Mzc7JiN4YTsgICAgICAgICAgICBzdHJva2U6IGJsYWNrOyYjeGE7ICAgICAgICAgICAgc3Ryb2tlLXdpZHRoOiAyOyYjeGE7ICAgICAgICAgICAgfSYjeGE7JiN4YTsgICAgICAgICAgICBAbWVkaWEgKHByZWZlcnMtY29sb3Itc2NoZW1lOiBkYXJrKSB7JiN4YTsgICAgICAgICAgICAudG9wIHsmI3hhOyAgICAgICAgICAgIGZpbGw6I2Y5ZmFmYjsmI3hhOyAgICAgICAgICAgIHN0cm9rZTogd2hpdGU7JiN4YTsgICAgICAgICAgICBzdHJva2Utd2lkdGg6IDI7JiN4YTsgICAgICAgICAgICB9JiN4YTsgICAgICAgICAgICAubGVmdCB7JiN4YTsgICAgICAgICAgICBmaWxsOiAjZTVlN2ViOyYjeGE7ICAgICAgICAgICAgc3Ryb2tlOiB3aGl0ZTsmI3hhOyAgICAgICAgICAgIHN0cm9rZS13aWR0aDogMjsmI3hhOyAgICAgICAgICAgIH0mI3hhOyAgICAgICAgICAgIC5yaWdodCB7JiN4YTsgICAgICAgICAgICBmaWxsOiAjOWNhM2FmOyYjeGE7ICAgICAgICAgICAgc3Ryb2tlOiB3aGl0ZTsmI3hhOyAgICAgICAgICAgIHN0cm9rZS13aWR0aDogMjsmI3hhOyAgICAgICAgICAgIH0mI3hhOyAgICAgICAgICAgIH0mI3hhOyAgICAgICAgPC9zdHlsZT4mI3hhOyAgICAgICAgPHN0eWxlIHR5cGU9InRleHQvY3NzIj4mI3hhOyAgICAgICAgICAgIC5sb2dpYyB7JiN4YTsgICAgICAgICAgICBmaWxsOiAjNGI1NTYzOyYjeGE7ICAgICAgICAgICAgc3Ryb2tlOiAjMzc0MTUxOyYjeGE7ICAgICAgICAgICAgc3Ryb2tlLXdpZHRoOiA0OyYjeGE7ICAgICAgICAgICAgfSYjeGE7ICAgICAgICAgICAgLmJhY2tncm91bmQgeyYjeGE7ICAgICAgICAgICAgZmlsbDogI2U1ZTdlYjsmI3hhOyAgICAgICAgICAgIHN0cm9rZTogIzM3NDE1MTsmI3hhOyAgICAgICAgICAgIHN0cm9rZS13aWR0aDogODsmI3hhOyAgICAgICAgICAgIH0mI3hhOyAgICAgICAgICAgIEBtZWRpYSAocHJlZmVycy1jb2xvci1zY2hlbWU6IGRhcmspIHsmI3hhOyAgICAgICAgICAgIC5sb2dpYyB7JiN4YTsgICAgICAgICAgICBmaWxsOiAjZDFkNWRiOyYjeGE7ICAgICAgICAgICAgc3Ryb2tlOiAjMzc0MTUxOyYjeGE7ICAgICAgICAgICAgc3Ryb2tlLXdpZHRoOiA0OyYjeGE7ICAgICAgICAgICAgfSYjeGE7ICAgICAgICAgICAgLmJhY2tncm91bmQgeyYjeGE7ICAgICAgICAgICAgZmlsbDogI2Y5ZmFmYjsmI3hhOyAgICAgICAgICAgIHN0cm9rZTogIzM3NDE1MTsmI3hhOyAgICAgICAgICAgIHN0cm9rZS13aWR0aDogODsmI3hhOyAgICAgICAgICAgIH0mI3hhOyAgICAgICAgICAgIH0mI3hhOyAgICAgICAgPC9zdHlsZT4mI3hhOyAgICA8L2RlZnM+JiN4YTsgICAgPGc+JiN4YTsgICAgICAgIDxwYXRoIGQ9Ik0gMjMwIDI4MCBsIDE1Ny4xOCA3Mi4zNTIgYyAyMC42NjggOS41MTU2IDU0LjQ5NiA5LjUxNTYgNzUuMTQ1IDAgbCAxMzIuNjQgLTYxLjA1NSBsIDIxNy41MyAtMTAzLjc0IGMgLTQuNTc0MiAtMy40MzM2IC05LjI1IC02LjUxNTYgLTE0LjE5MSAtOC43NzM0IGwgLTMxNy4wOSAtMTQ2LjAxIGMgLTMwLjk5MiAtMTQuMjc3IC04MS43NDYgLTE0LjI3NyAtMTEyLjc2IDAgbCAtMzE3LjE5IDE0Ni4wMSBjIC01LjA3MDMgMi4zMTY0IC05Ljg2NzIgNS41MjM0IC0xNC41NDMgOS4wNjI1IHoiIGNsYXNzPSJ0b3AiLz4mI3hhOyAgICAgICAgPHBhdGggZD0ibSA0MjMuMzQgNDIwLjk2IGMgMCAtMjIuODAxIC0xNi45MDIgLTQ5LjE2IC0zNy41NzQgLTU4LjY5NSBsIC0yMzkuNDIgLTExMC4xNSBjIC0wLjIwNyAtMC4wODIgLTAuMzcxMSAtMC4yNSAtMC41NzgxIC0wLjM1MTYgbCAtMTA4LjI1IC00OS44ODMgdiAzNzIuMjUgYyAwIDM0LjEzNyAyNS4zODcgNzMuNzM4IDU2LjM5OCA4OC4wMzUgbCAzMTcuMTkgMTQ2LjAzIGMgMi44MTI1IDEuMzA0NyA1Ljk1NyAyLjMzOTggOS4wNjI1IDMuMzk0NSBsIDMuMTQ0NSAtMTkzLjggbCAwLjAwMzkgLTE5Ni44MiB6IiBjbGFzcz0ibGVmdCIvPiYjeGE7ICAgICAgICA8cGF0aCBkPSJtIDcwOC41OSAyNTAuOTYgYyAtMC40MzM2IDAuMjI2NiAtMC44MDg2IDAuNTM5MSAtMS4yODEyIDAuNzY1NiBsIC0yMzkuNDYgMTEwLjIxIGMgLTIwLjY5MSA5LjQ5NjEgLTM3LjU3NCAzNS45MTggLTM3LjU3NCA1OC42NzYgdiAxNjIuMTIgbCAwLjQ3NjYgLTAuMDE5NSBsIC0wLjc0NjEgMjI5LjggYyA0LjQ2ODggLTEuMzQzOCA4LjcxMDkgLTIuOTM3NSAxMi42MjEgLTQuNzM4MyBsIDMxNy4xNyAtMTQ2LjAzIGMgMzAuOTkyIC0xNC4yNzcgNTYuMzk4IC01My44NzUgNTYuMzk4IC04OC4wMzUgbCAtMC4wNjI1IC0zNzIuMzkgeiIgY2xhc3M9InJpZ2h0Ii8+JiN4YTsgICAgICAgIDxwYXRoIGQ9Im0gMzc3LjQgNDYzLjIgTCA4MDQuMiA0NjMuMiBDIDgyMS44IDQ2My4yIDgyOC40IDQ2OS44IDgyOC40IDQ4Ny40IEwgODI4LjQgNzgzLjMgQyA4MjguNCA3OTkuOCA4MjEuOCA4MDYuNCA4MDUuMyA4MDYuNCBMIDM3Ny40IDgwNi40IEMgMzU5LjggODA2LjQgMzUzLjIgNzk5LjggMzUzLjIgNzgzLjMgTCAzNTMuMiA0ODcuNCBDIDM1My4yIDQ2OS44IDM1OS44IDQ2My4yIDM3Ny40IDQ2My4yIiBjbGFzcz0iYmFja2dyb3VuZCIvPiYjeGE7ICAgICAgICA8cGF0aCBkPSJtIDM3OS42IDUxNiBMIDM5Mi44IDUyOS4yIEwgMzc5LjYgNTQyLjQgTCAzOTIuOCA1MjkuMiBNIDM5OS40IDUyOS4yIEwgMzk5LjQgNTI5LjIgTCA0OTguNCA1MjkuMiBNIDUwNSA0ODkuNiBMIDUwNSA1NjguOCBMIDU5Ny40IDUyOS4yIEwgNTA1IDQ4OS42IE0gNTk4LjcyIDUyOS4yIEwgNjYzLjQgNTI5LjIgTCA2NjMuNCA1ODguNiBMIDc0Mi42IDU4OC42IEwgNjYzLjQgNTg4LjYgTCA2NjMuNCA1MjkuMiBNIDc0OS4yIDU3NS40IEMgNzgyLjIgNTc1LjQgODA4LjYgNTk1LjIgODA4LjYgNjIxLjYgQyA4MDguNiA2NDggNzgyLjIgNjY3LjggNzQ5LjIgNjY3LjggTCA3NDkuMiA1NzUuNCBNIDc0Mi42IDY1NC42IEwgNjYzLjQgNjU0LjYgTCA2NjMuNCA3MjcuMiBMIDU5OC43MiA3MjcuMiBMIDY2My40IDcyNy4yIEwgNjYzLjQgNjU0LjYgTSA1OTcuNCA3MjcuMiBDIDU5Ny40IDcwMC44IDU3MSA2ODEgNTM4IDY4MSBMIDUzOCA3NzMuNCBDIDU3MSA3NzMuNCA1OTcuNCA3NTMuNiA1OTcuNCA3MjcuMiBNIDUzMS40IDY5NC4yIEwgMzk5LjQgNjk0LjIgTSA1MzEuNCA3NjAuMiBMIDM5OS40IDc2MC4yIE0gMzc5LjYgNjgxIEwgMzkyLjggNjk0LjIgTCAzNzkuNiA3MDcuNCBMIDM5Mi44IDY5NC4yIE0gMzc5LjYgNzQ3IEwgMzkyLjggNzYwLjIgTCAzNzkuNiA3NzMuNCBMIDM5Mi44IDc2MC4yIE0gNTMyLjcyIDY5NC4yIEMgNTMyLjcyIDY5MS41NiA1MzUuMzYgNjkwLjI0IDUzNi42OCA2OTAuMjQgTCA1MzYuNjggNjk5LjQ4IEMgNTM1LjM2IDY5OS40OCA1MzIuNzIgNjk4LjE2IDUzMi43MiA2OTQuMiBNIDUzMi43MiA3NjAuMiBDIDUzMi43MiA3NTcuNTYgNTM1LjM2IDc1Ni4yNCA1MzYuNjggNzU2LjI0IEwgNTM2LjY4IDc2NC4xNiBDIDUzNS4zNiA3NjQuMTYgNTMyLjcyIDc2Mi44NCA1MzIuNzIgNzYwLjIgTSA3NDMuOTIgNTg4LjYgQyA3NDMuOTIgNTg1Ljk2IDc0Ni41NiA1ODQuNjQgNzQ3Ljg4IDU4NC42NCBMIDc0Ny44OCA1OTIuNTYgQyA3NDYuNTYgNTkyLjU2IDc0My45MiA1OTEuMjQgNzQzLjkyIDU4OC42IE0gNzQzLjkyIDY1NC42IEMgNzQzLjkyIDY1MS45NiA3NDYuNTYgNjUwLjY0IDc0Ny44OCA2NTAuNjQgTCA3NDcuODggNjU4LjU2IEMgNzQ2LjU2IDY1OC41NiA3NDMuOTIgNjU3LjI0IDc0My45MiA2NTQuNiBNIDQ5OS43MiA1MjkuMiBDIDQ5OS43MiA1MjYuNTYgNTAyLjM2IDUyNS4yNCA1MDMuNjggNTI1LjI0IEwgNTAzLjY4IDUzMy4xNiBDIDUwMi4zNiA1MzMuMTYgNDk5LjcyIDUzMS44NCA0OTkuNzIgNTI5LjIgeiIgY2xhc3M9ImxvZ2ljIi8+JiN4YTsgICAgPC9nPiYjeGE7PC9zdmc+;" parent="1" vertex="1">
          <mxGeometry x="314.82" y="44.75" width="63.5" height="63.5" as="geometry" />
        </mxCell>
      </root>
    </mxGraphModel>
  </diagram>
  <diagram id="yCi-1VGz-EXiX4PHul1R" name="ODSOA">
    <mxGraphModel dx="2074" dy="1106" grid="0" gridSize="10" guides="1" tooltips="1" connect="1" arrows="1" fold="1" page="1" pageScale="1" pageWidth="1169" pageHeight="827" math="0" shadow="0">
      <root>
        <mxCell id="0" />
        <mxCell id="1" parent="0" />
        <mxCell id="xs-MprTF5tvxO5WwdqVo-1" value="&lt;font face=&quot;Atkinson Hyperlegible&quot;&gt;Integration Platform&lt;/font&gt;" style="rounded=1;whiteSpace=wrap;html=1;dashed=1;dashPattern=12 12;glass=0;shadow=1;textShadow=1;strokeColor=none;fillColor=#d1d5db;verticalAlign=top;gradientColor=none;" parent="1" vertex="1">
          <mxGeometry x="420" y="30" width="350" height="339" as="geometry" />
        </mxCell>
        <mxCell id="xs-MprTF5tvxO5WwdqVo-13" style="edgeStyle=orthogonalEdgeStyle;rounded=0;orthogonalLoop=1;jettySize=auto;html=1;" parent="1" source="0lws74I9KLhbYAXbmXYY-1" target="xs-MprTF5tvxO5WwdqVo-6" edge="1">
          <mxGeometry relative="1" as="geometry">
            <Array as="points">
              <mxPoint x="425" y="86" />
              <mxPoint x="425" y="86" />
            </Array>
          </mxGeometry>
        </mxCell>
        <mxCell id="0lws74I9KLhbYAXbmXYY-1" value="" style="shape=image;verticalLabelPosition=bottom;labelBackgroundColor=none;verticalAlign=top;aspect=fixed;imageAspect=0;image=data:image/svg+xml,PHN2ZyB4bWxucz0iaHR0cDovL3d3dy53My5vcmcvMjAwMC9zdmciIHZpZXdCb3g9IjAgMCA4NTAgODUwIiB2ZXJzaW9uPSIxLjEiIGhlaWdodD0iODUwcHQiIHdpZHRoPSI4NTBwdCI+JiN4YTsgICAgPHN0eWxlIHR5cGU9InRleHQvY3NzIj4mI3hhOyAgICAgICAgLnRvcCB7JiN4YTsgICAgICAgIGZpbGw6IzZiNzI4MDsmI3hhOyAgICAgICAgfSYjeGE7ICAgICAgICAubGVmdCB7JiN4YTsgICAgICAgIGZpbGw6ICM0YjU1NjM7JiN4YTsgICAgICAgIH0mI3hhOyAgICAgICAgLnJpZ2h0IHsmI3hhOyAgICAgICAgZmlsbDojMWYyOTM3OyYjeGE7ICAgICAgICB9JiN4YTsmI3hhOyAgICAgICAgQG1lZGlhIChwcmVmZXJzLWNvbG9yLXNjaGVtZTogZGFyaykgeyYjeGE7ICAgICAgICAudG9wIHsmI3hhOyAgICAgICAgZmlsbDojZjlmYWZiOyYjeGE7ICAgICAgICB9JiN4YTsgICAgICAgIC5sZWZ0IHsmI3hhOyAgICAgICAgZmlsbDogI2U1ZTdlYjsmI3hhOyAgICAgICAgfSYjeGE7ICAgICAgICAucmlnaHQgeyYjeGE7ICAgICAgICBmaWxsOiAjOWNhM2FmOyYjeGE7ICAgICAgICB9JiN4YTsgICAgICAgIH0mI3hhOyAgICA8L3N0eWxlPiYjeGE7ICAgIDxnPiYjeGE7ICAgICAgICA8cGF0aCBkPSJNIDIzMCAyODAgbCAxNTcuMTggNzIuMzUyIGMgMjAuNjY4IDkuNTE1NiA1NC40OTYgOS41MTU2IDc1LjE0NSAwIGwgMTMyLjY0IC02MS4wNTUgbCAyMTcuNTMgLTEwMy43NCBjIC00LjU3NDIgLTMuNDMzNiAtOS4yNSAtNi41MTU2IC0xNC4xOTEgLTguNzczNCBsIC0zMTcuMDkgLTE0Ni4wMSBjIC0zMC45OTIgLTE0LjI3NyAtODEuNzQ2IC0xNC4yNzcgLTExMi43NiAwIGwgLTMxNy4xOSAxNDYuMDEgYyAtNS4wNzAzIDIuMzE2NCAtOS44NjcyIDUuNTIzNCAtMTQuNTQzIDkuMDYyNSB6IiBjbGFzcz0idG9wIi8+JiN4YTsgICAgICAgIDxwYXRoIGQ9Im0gNDIzLjM0IDQyMC45NiBjIDAgLTIyLjgwMSAtMTYuOTAyIC00OS4xNiAtMzcuNTc0IC01OC42OTUgbCAtMjM5LjQyIC0xMTAuMTUgYyAtMC4yMDcgLTAuMDgyIC0wLjM3MTEgLTAuMjUgLTAuNTc4MSAtMC4zNTE2IGwgLTEwOC4yNSAtNDkuODgzIHYgMzcyLjI1IGMgMCAzNC4xMzcgMjUuMzg3IDczLjczOCA1Ni4zOTggODguMDM1IGwgMzE3LjE5IDE0Ni4wMyBjIDIuODEyNSAxLjMwNDcgNS45NTcgMi4zMzk4IDkuMDYyNSAzLjM5NDUgbCAzLjE0NDUgLTE5My44IGwgMC4wMDM5IC0xOTYuODIgeiIgY2xhc3M9ImxlZnQiLz4mI3hhOyAgICAgICAgPHBhdGggZD0ibSA3MDguNTkgMjUwLjk2IGMgLTAuNDMzNiAwLjIyNjYgLTAuODA4NiAwLjUzOTEgLTEuMjgxMiAwLjc2NTYgbCAtMjM5LjQ2IDExMC4yMSBjIC0yMC42OTEgOS40OTYxIC0zNy41NzQgMzUuOTE4IC0zNy41NzQgNTguNjc2IHYgMTYyLjEyIGwgMC40NzY2IC0wLjAxOTUgbCAtMC43NDYxIDIyOS44IGMgNC40Njg4IC0xLjM0MzggOC43MTA5IC0yLjkzNzUgMTIuNjIxIC00LjczODMgbCAzMTcuMTcgLTE0Ni4wMyBjIDMwLjk5MiAtMTQuMjc3IDU2LjM5OCAtNTMuODc1IDU2LjM5OCAtODguMDM1IGwgLTAuMDYyNSAtMzcyLjM5IHoiIGNsYXNzPSJyaWdodCIvPiYjeGE7ICAgIDwvZz4mI3hhOzwvc3ZnPg==;shadow=1;textShadow=1;fontFamily=Atkinson Hyperlegible;fontSource=https%3A%2F%2Ffonts.googleapis.com%2Fcss%3Ffamily%3DAtkinson%2BHyperlegible;" parent="1" vertex="1">
          <mxGeometry x="330" y="50" width="60" height="60" as="geometry" />
        </mxCell>
        <mxCell id="0lws74I9KLhbYAXbmXYY-2" value="Client" style="text;html=1;align=center;verticalAlign=middle;whiteSpace=wrap;rounded=0;fontFamily=Atkinson Hyperlegible;fontSource=https%3A%2F%2Ffonts.googleapis.com%2Fcss%3Ffamily%3DAtkinson%2BHyperlegible;" parent="1" vertex="1">
          <mxGeometry x="330" y="100" width="60" height="30" as="geometry" />
        </mxCell>
        <mxCell id="xs-MprTF5tvxO5WwdqVo-17" style="edgeStyle=orthogonalEdgeStyle;rounded=0;orthogonalLoop=1;jettySize=auto;html=1;" parent="1" source="0lws74I9KLhbYAXbmXYY-3" target="xs-MprTF5tvxO5WwdqVo-8" edge="1">
          <mxGeometry relative="1" as="geometry">
            <Array as="points">
              <mxPoint x="426" y="154" />
              <mxPoint x="426" y="154" />
            </Array>
          </mxGeometry>
        </mxCell>
        <mxCell id="0lws74I9KLhbYAXbmXYY-3" value="" style="shape=image;verticalLabelPosition=bottom;labelBackgroundColor=none;verticalAlign=top;aspect=fixed;imageAspect=0;image=data:image/svg+xml,PHN2ZyB4bWxucz0iaHR0cDovL3d3dy53My5vcmcvMjAwMC9zdmciIHZpZXdCb3g9IjAgMCA4NTAgODUwIiB2ZXJzaW9uPSIxLjEiIGhlaWdodD0iODUwcHQiIHdpZHRoPSI4NTBwdCI+JiN4YTsgICAgPHN0eWxlIHR5cGU9InRleHQvY3NzIj4mI3hhOyAgICAgICAgLnRvcCB7JiN4YTsgICAgICAgIGZpbGw6IzZiNzI4MDsmI3hhOyAgICAgICAgfSYjeGE7ICAgICAgICAubGVmdCB7JiN4YTsgICAgICAgIGZpbGw6ICM0YjU1NjM7JiN4YTsgICAgICAgIH0mI3hhOyAgICAgICAgLnJpZ2h0IHsmI3hhOyAgICAgICAgZmlsbDojMWYyOTM3OyYjeGE7ICAgICAgICB9JiN4YTsmI3hhOyAgICAgICAgQG1lZGlhIChwcmVmZXJzLWNvbG9yLXNjaGVtZTogZGFyaykgeyYjeGE7ICAgICAgICAudG9wIHsmI3hhOyAgICAgICAgZmlsbDojZjlmYWZiOyYjeGE7ICAgICAgICB9JiN4YTsgICAgICAgIC5sZWZ0IHsmI3hhOyAgICAgICAgZmlsbDogI2U1ZTdlYjsmI3hhOyAgICAgICAgfSYjeGE7ICAgICAgICAucmlnaHQgeyYjeGE7ICAgICAgICBmaWxsOiAjOWNhM2FmOyYjeGE7ICAgICAgICB9JiN4YTsgICAgICAgIH0mI3hhOyAgICA8L3N0eWxlPiYjeGE7ICAgIDxnPiYjeGE7ICAgICAgICA8cGF0aCBkPSJNIDIzMCAyODAgbCAxNTcuMTggNzIuMzUyIGMgMjAuNjY4IDkuNTE1NiA1NC40OTYgOS41MTU2IDc1LjE0NSAwIGwgMTMyLjY0IC02MS4wNTUgbCAyMTcuNTMgLTEwMy43NCBjIC00LjU3NDIgLTMuNDMzNiAtOS4yNSAtNi41MTU2IC0xNC4xOTEgLTguNzczNCBsIC0zMTcuMDkgLTE0Ni4wMSBjIC0zMC45OTIgLTE0LjI3NyAtODEuNzQ2IC0xNC4yNzcgLTExMi43NiAwIGwgLTMxNy4xOSAxNDYuMDEgYyAtNS4wNzAzIDIuMzE2NCAtOS44NjcyIDUuNTIzNCAtMTQuNTQzIDkuMDYyNSB6IiBjbGFzcz0idG9wIi8+JiN4YTsgICAgICAgIDxwYXRoIGQ9Im0gNDIzLjM0IDQyMC45NiBjIDAgLTIyLjgwMSAtMTYuOTAyIC00OS4xNiAtMzcuNTc0IC01OC42OTUgbCAtMjM5LjQyIC0xMTAuMTUgYyAtMC4yMDcgLTAuMDgyIC0wLjM3MTEgLTAuMjUgLTAuNTc4MSAtMC4zNTE2IGwgLTEwOC4yNSAtNDkuODgzIHYgMzcyLjI1IGMgMCAzNC4xMzcgMjUuMzg3IDczLjczOCA1Ni4zOTggODguMDM1IGwgMzE3LjE5IDE0Ni4wMyBjIDIuODEyNSAxLjMwNDcgNS45NTcgMi4zMzk4IDkuMDYyNSAzLjM5NDUgbCAzLjE0NDUgLTE5My44IGwgMC4wMDM5IC0xOTYuODIgeiIgY2xhc3M9ImxlZnQiLz4mI3hhOyAgICAgICAgPHBhdGggZD0ibSA3MDguNTkgMjUwLjk2IGMgLTAuNDMzNiAwLjIyNjYgLTAuODA4NiAwLjUzOTEgLTEuMjgxMiAwLjc2NTYgbCAtMjM5LjQ2IDExMC4yMSBjIC0yMC42OTEgOS40OTYxIC0zNy41NzQgMzUuOTE4IC0zNy41NzQgNTguNjc2IHYgMTYyLjEyIGwgMC40NzY2IC0wLjAxOTUgbCAtMC43NDYxIDIyOS44IGMgNC40Njg4IC0xLjM0MzggOC43MTA5IC0yLjkzNzUgMTIuNjIxIC00LjczODMgbCAzMTcuMTcgLTE0Ni4wMyBjIDMwLjk5MiAtMTQuMjc3IDU2LjM5OCAtNTMuODc1IDU2LjM5OCAtODguMDM1IGwgLTAuMDYyNSAtMzcyLjM5IHoiIGNsYXNzPSJyaWdodCIvPiYjeGE7ICAgIDwvZz4mI3hhOzwvc3ZnPg==;shadow=1;textShadow=1;fontFamily=Atkinson Hyperlegible;fontSource=https%3A%2F%2Ffonts.googleapis.com%2Fcss%3Ffamily%3DAtkinson%2BHyperlegible;" parent="1" vertex="1">
          <mxGeometry x="330" y="130" width="60" height="60" as="geometry" />
        </mxCell>
        <mxCell id="0lws74I9KLhbYAXbmXYY-4" value="Client" style="text;html=1;align=center;verticalAlign=middle;whiteSpace=wrap;rounded=0;fontFamily=Atkinson Hyperlegible;fontSource=https%3A%2F%2Ffonts.googleapis.com%2Fcss%3Ffamily%3DAtkinson%2BHyperlegible;" parent="1" vertex="1">
          <mxGeometry x="330" y="180" width="60" height="30" as="geometry" />
        </mxCell>
        <mxCell id="xs-MprTF5tvxO5WwdqVo-30" style="edgeStyle=orthogonalEdgeStyle;rounded=0;orthogonalLoop=1;jettySize=auto;html=1;dashed=1;" parent="1" source="xs-MprTF5tvxO5WwdqVo-2" target="xs-MprTF5tvxO5WwdqVo-10" edge="1">
          <mxGeometry relative="1" as="geometry">
            <Array as="points">
              <mxPoint x="770" y="76" />
              <mxPoint x="770" y="76" />
            </Array>
          </mxGeometry>
        </mxCell>
        <mxCell id="xs-MprTF5tvxO5WwdqVo-2" value="" style="shape=image;verticalLabelPosition=bottom;labelBackgroundColor=none;verticalAlign=top;aspect=fixed;imageAspect=0;image=data:image/svg+xml,PHN2ZyB4bWxucz0iaHR0cDovL3d3dy53My5vcmcvMjAwMC9zdmciIHZpZXdCb3g9IjAgMCA4NTAgODUwIiB2ZXJzaW9uPSIxLjEiIGhlaWdodD0iODUwcHQiIHdpZHRoPSI4NTBwdCI+JiN4YTsgICAgPHN0eWxlIHR5cGU9InRleHQvY3NzIj4mI3hhOyAgICAgICAgLnRvcCB7JiN4YTsgICAgICAgIGZpbGw6IzZiNzI4MDsmI3hhOyAgICAgICAgfSYjeGE7ICAgICAgICAubGVmdCB7JiN4YTsgICAgICAgIGZpbGw6ICM0YjU1NjM7JiN4YTsgICAgICAgIH0mI3hhOyAgICAgICAgLnJpZ2h0IHsmI3hhOyAgICAgICAgZmlsbDojMWYyOTM3OyYjeGE7ICAgICAgICB9JiN4YTsmI3hhOyAgICAgICAgQG1lZGlhIChwcmVmZXJzLWNvbG9yLXNjaGVtZTogZGFyaykgeyYjeGE7ICAgICAgICAudG9wIHsmI3hhOyAgICAgICAgZmlsbDojZjlmYWZiOyYjeGE7ICAgICAgICB9JiN4YTsgICAgICAgIC5sZWZ0IHsmI3hhOyAgICAgICAgZmlsbDogI2U1ZTdlYjsmI3hhOyAgICAgICAgfSYjeGE7ICAgICAgICAucmlnaHQgeyYjeGE7ICAgICAgICBmaWxsOiAjOWNhM2FmOyYjeGE7ICAgICAgICB9JiN4YTsgICAgICAgIH0mI3hhOyAgICA8L3N0eWxlPiYjeGE7ICAgIDxnPiYjeGE7ICAgICAgICA8cGF0aCBkPSJNIDIzMCAyODAgbCAxNTcuMTggNzIuMzUyIGMgMjAuNjY4IDkuNTE1NiA1NC40OTYgOS41MTU2IDc1LjE0NSAwIGwgMTMyLjY0IC02MS4wNTUgbCAyMTcuNTMgLTEwMy43NCBjIC00LjU3NDIgLTMuNDMzNiAtOS4yNSAtNi41MTU2IC0xNC4xOTEgLTguNzczNCBsIC0zMTcuMDkgLTE0Ni4wMSBjIC0zMC45OTIgLTE0LjI3NyAtODEuNzQ2IC0xNC4yNzcgLTExMi43NiAwIGwgLTMxNy4xOSAxNDYuMDEgYyAtNS4wNzAzIDIuMzE2NCAtOS44NjcyIDUuNTIzNCAtMTQuNTQzIDkuMDYyNSB6IiBjbGFzcz0idG9wIi8+JiN4YTsgICAgICAgIDxwYXRoIGQ9Im0gNDIzLjM0IDQyMC45NiBjIDAgLTIyLjgwMSAtMTYuOTAyIC00OS4xNiAtMzcuNTc0IC01OC42OTUgbCAtMjM5LjQyIC0xMTAuMTUgYyAtMC4yMDcgLTAuMDgyIC0wLjM3MTEgLTAuMjUgLTAuNTc4MSAtMC4zNTE2IGwgLTEwOC4yNSAtNDkuODgzIHYgMzcyLjI1IGMgMCAzNC4xMzcgMjUuMzg3IDczLjczOCA1Ni4zOTggODguMDM1IGwgMzE3LjE5IDE0Ni4wMyBjIDIuODEyNSAxLjMwNDcgNS45NTcgMi4zMzk4IDkuMDYyNSAzLjM5NDUgbCAzLjE0NDUgLTE5My44IGwgMC4wMDM5IC0xOTYuODIgeiIgY2xhc3M9ImxlZnQiLz4mI3hhOyAgICAgICAgPHBhdGggZD0ibSA3MDguNTkgMjUwLjk2IGMgLTAuNDMzNiAwLjIyNjYgLTAuODA4NiAwLjUzOTEgLTEuMjgxMiAwLjc2NTYgbCAtMjM5LjQ2IDExMC4yMSBjIC0yMC42OTEgOS40OTYxIC0zNy41NzQgMzUuOTE4IC0zNy41NzQgNTguNjc2IHYgMTYyLjEyIGwgMC40NzY2IC0wLjAxOTUgbCAtMC43NDYxIDIyOS44IGMgNC40Njg4IC0xLjM0MzggOC43MTA5IC0yLjkzNzUgMTIuNjIxIC00LjczODMgbCAzMTcuMTcgLTE0Ni4wMyBjIDMwLjk5MiAtMTQuMjc3IDU2LjM5OCAtNTMuODc1IDU2LjM5OCAtODguMDM1IGwgLTAuMDYyNSAtMzcyLjM5IHoiIGNsYXNzPSJyaWdodCIvPiYjeGE7ICAgIDwvZz4mI3hhOzwvc3ZnPg==;shadow=1;textShadow=1;fontFamily=Atkinson Hyperlegible;fontSource=https%3A%2F%2Ffonts.googleapis.com%2Fcss%3Ffamily%3DAtkinson%2BHyperlegible;" parent="1" vertex="1">
          <mxGeometry x="810" y="50" width="60" height="60" as="geometry" />
        </mxCell>
        <mxCell id="xs-MprTF5tvxO5WwdqVo-3" value="Provider" style="text;html=1;align=center;verticalAlign=middle;whiteSpace=wrap;rounded=0;fontFamily=Atkinson Hyperlegible;fontSource=https%3A%2F%2Ffonts.googleapis.com%2Fcss%3Ffamily%3DAtkinson%2BHyperlegible;" parent="1" vertex="1">
          <mxGeometry x="810" y="100" width="60" height="30" as="geometry" />
        </mxCell>
        <mxCell id="xs-MprTF5tvxO5WwdqVo-4" value="" style="shape=image;verticalLabelPosition=bottom;labelBackgroundColor=none;verticalAlign=top;aspect=fixed;imageAspect=0;image=data:image/svg+xml,PHN2ZyB4bWxucz0iaHR0cDovL3d3dy53My5vcmcvMjAwMC9zdmciIHZpZXdCb3g9IjAgMCA4NTAgODUwIiB2ZXJzaW9uPSIxLjEiIGhlaWdodD0iODUwcHQiIHdpZHRoPSI4NTBwdCI+JiN4YTsgICAgPHN0eWxlIHR5cGU9InRleHQvY3NzIj4mI3hhOyAgICAgICAgLnRvcCB7JiN4YTsgICAgICAgIGZpbGw6IzZiNzI4MDsmI3hhOyAgICAgICAgfSYjeGE7ICAgICAgICAubGVmdCB7JiN4YTsgICAgICAgIGZpbGw6ICM0YjU1NjM7JiN4YTsgICAgICAgIH0mI3hhOyAgICAgICAgLnJpZ2h0IHsmI3hhOyAgICAgICAgZmlsbDojMWYyOTM3OyYjeGE7ICAgICAgICB9JiN4YTsmI3hhOyAgICAgICAgQG1lZGlhIChwcmVmZXJzLWNvbG9yLXNjaGVtZTogZGFyaykgeyYjeGE7ICAgICAgICAudG9wIHsmI3hhOyAgICAgICAgZmlsbDojZjlmYWZiOyYjeGE7ICAgICAgICB9JiN4YTsgICAgICAgIC5sZWZ0IHsmI3hhOyAgICAgICAgZmlsbDogI2U1ZTdlYjsmI3hhOyAgICAgICAgfSYjeGE7ICAgICAgICAucmlnaHQgeyYjeGE7ICAgICAgICBmaWxsOiAjOWNhM2FmOyYjeGE7ICAgICAgICB9JiN4YTsgICAgICAgIH0mI3hhOyAgICA8L3N0eWxlPiYjeGE7ICAgIDxnPiYjeGE7ICAgICAgICA8cGF0aCBkPSJNIDIzMCAyODAgbCAxNTcuMTggNzIuMzUyIGMgMjAuNjY4IDkuNTE1NiA1NC40OTYgOS41MTU2IDc1LjE0NSAwIGwgMTMyLjY0IC02MS4wNTUgbCAyMTcuNTMgLTEwMy43NCBjIC00LjU3NDIgLTMuNDMzNiAtOS4yNSAtNi41MTU2IC0xNC4xOTEgLTguNzczNCBsIC0zMTcuMDkgLTE0Ni4wMSBjIC0zMC45OTIgLTE0LjI3NyAtODEuNzQ2IC0xNC4yNzcgLTExMi43NiAwIGwgLTMxNy4xOSAxNDYuMDEgYyAtNS4wNzAzIDIuMzE2NCAtOS44NjcyIDUuNTIzNCAtMTQuNTQzIDkuMDYyNSB6IiBjbGFzcz0idG9wIi8+JiN4YTsgICAgICAgIDxwYXRoIGQ9Im0gNDIzLjM0IDQyMC45NiBjIDAgLTIyLjgwMSAtMTYuOTAyIC00OS4xNiAtMzcuNTc0IC01OC42OTUgbCAtMjM5LjQyIC0xMTAuMTUgYyAtMC4yMDcgLTAuMDgyIC0wLjM3MTEgLTAuMjUgLTAuNTc4MSAtMC4zNTE2IGwgLTEwOC4yNSAtNDkuODgzIHYgMzcyLjI1IGMgMCAzNC4xMzcgMjUuMzg3IDczLjczOCA1Ni4zOTggODguMDM1IGwgMzE3LjE5IDE0Ni4wMyBjIDIuODEyNSAxLjMwNDcgNS45NTcgMi4zMzk4IDkuMDYyNSAzLjM5NDUgbCAzLjE0NDUgLTE5My44IGwgMC4wMDM5IC0xOTYuODIgeiIgY2xhc3M9ImxlZnQiLz4mI3hhOyAgICAgICAgPHBhdGggZD0ibSA3MDguNTkgMjUwLjk2IGMgLTAuNDMzNiAwLjIyNjYgLTAuODA4NiAwLjUzOTEgLTEuMjgxMiAwLjc2NTYgbCAtMjM5LjQ2IDExMC4yMSBjIC0yMC42OTEgOS40OTYxIC0zNy41NzQgMzUuOTE4IC0zNy41NzQgNTguNjc2IHYgMTYyLjEyIGwgMC40NzY2IC0wLjAxOTUgbCAtMC43NDYxIDIyOS44IGMgNC40Njg4IC0xLjM0MzggOC43MTA5IC0yLjkzNzUgMTIuNjIxIC00LjczODMgbCAzMTcuMTcgLTE0Ni4wMyBjIDMwLjk5MiAtMTQuMjc3IDU2LjM5OCAtNTMuODc1IDU2LjM5OCAtODguMDM1IGwgLTAuMDYyNSAtMzcyLjM5IHoiIGNsYXNzPSJyaWdodCIvPiYjeGE7ICAgIDwvZz4mI3hhOzwvc3ZnPg==;shadow=1;textShadow=1;fontFamily=Atkinson Hyperlegible;fontSource=https%3A%2F%2Ffonts.googleapis.com%2Fcss%3Ffamily%3DAtkinson%2BHyperlegible;" parent="1" vertex="1">
          <mxGeometry x="810" y="130" width="60" height="60" as="geometry" />
        </mxCell>
        <mxCell id="xs-MprTF5tvxO5WwdqVo-5" value="Provider" style="text;html=1;align=center;verticalAlign=middle;whiteSpace=wrap;rounded=0;fontFamily=Atkinson Hyperlegible;fontSource=https%3A%2F%2Ffonts.googleapis.com%2Fcss%3Ffamily%3DAtkinson%2BHyperlegible;" parent="1" vertex="1">
          <mxGeometry x="810" y="180" width="60" height="30" as="geometry" />
        </mxCell>
        <mxCell id="xs-MprTF5tvxO5WwdqVo-14" style="edgeStyle=orthogonalEdgeStyle;rounded=0;orthogonalLoop=1;jettySize=auto;html=1;" parent="1" source="xs-MprTF5tvxO5WwdqVo-6" target="xs-MprTF5tvxO5WwdqVo-9" edge="1">
          <mxGeometry relative="1" as="geometry">
            <Array as="points">
              <mxPoint x="528" y="86" />
              <mxPoint x="528" y="110" />
            </Array>
          </mxGeometry>
        </mxCell>
        <mxCell id="xs-MprTF5tvxO5WwdqVo-32" style="edgeStyle=orthogonalEdgeStyle;rounded=0;orthogonalLoop=1;jettySize=auto;html=1;dashed=1;" parent="1" source="xs-MprTF5tvxO5WwdqVo-6" target="0lws74I9KLhbYAXbmXYY-1" edge="1">
          <mxGeometry relative="1" as="geometry">
            <Array as="points">
              <mxPoint x="425" y="76" />
              <mxPoint x="425" y="76" />
            </Array>
          </mxGeometry>
        </mxCell>
        <mxCell id="xs-MprTF5tvxO5WwdqVo-6" value="" style="shape=image;verticalLabelPosition=bottom;labelBackgroundColor=none;verticalAlign=top;aspect=fixed;imageAspect=0;image=data:image/svg+xml,PHN2ZyB4bWxucz0iaHR0cDovL3d3dy53My5vcmcvMjAwMC9zdmciIHZpZXdCb3g9IjAgMCA4NTAgODUwIiB2ZXJzaW9uPSIxLjEiIGhlaWdodD0iODUwcHQiIHdpZHRoPSI4NTBwdCI+JiN4YTsgICAgPHN0eWxlIHR5cGU9InRleHQvY3NzIj4mI3hhOyAgICAgICAgLnRvcCB7JiN4YTsgICAgICAgIGZpbGw6IzZiNzI4MDsmI3hhOyAgICAgICAgfSYjeGE7ICAgICAgICAubGVmdCB7JiN4YTsgICAgICAgIGZpbGw6ICM0YjU1NjM7JiN4YTsgICAgICAgIH0mI3hhOyAgICAgICAgLnJpZ2h0IHsmI3hhOyAgICAgICAgZmlsbDojMWYyOTM3OyYjeGE7ICAgICAgICB9JiN4YTsmI3hhOyAgICAgICAgQG1lZGlhIChwcmVmZXJzLWNvbG9yLXNjaGVtZTogZGFyaykgeyYjeGE7ICAgICAgICAudG9wIHsmI3hhOyAgICAgICAgZmlsbDojZjlmYWZiOyYjeGE7ICAgICAgICB9JiN4YTsgICAgICAgIC5sZWZ0IHsmI3hhOyAgICAgICAgZmlsbDogI2U1ZTdlYjsmI3hhOyAgICAgICAgfSYjeGE7ICAgICAgICAucmlnaHQgeyYjeGE7ICAgICAgICBmaWxsOiAjOWNhM2FmOyYjeGE7ICAgICAgICB9JiN4YTsgICAgICAgIH0mI3hhOyAgICA8L3N0eWxlPiYjeGE7ICAgIDxnPiYjeGE7ICAgICAgICA8cGF0aCBkPSJNIDIzMCAyODAgbCAxNTcuMTggNzIuMzUyIGMgMjAuNjY4IDkuNTE1NiA1NC40OTYgOS41MTU2IDc1LjE0NSAwIGwgMTMyLjY0IC02MS4wNTUgbCAyMTcuNTMgLTEwMy43NCBjIC00LjU3NDIgLTMuNDMzNiAtOS4yNSAtNi41MTU2IC0xNC4xOTEgLTguNzczNCBsIC0zMTcuMDkgLTE0Ni4wMSBjIC0zMC45OTIgLTE0LjI3NyAtODEuNzQ2IC0xNC4yNzcgLTExMi43NiAwIGwgLTMxNy4xOSAxNDYuMDEgYyAtNS4wNzAzIDIuMzE2NCAtOS44NjcyIDUuNTIzNCAtMTQuNTQzIDkuMDYyNSB6IiBjbGFzcz0idG9wIi8+JiN4YTsgICAgICAgIDxwYXRoIGQ9Im0gNDIzLjM0IDQyMC45NiBjIDAgLTIyLjgwMSAtMTYuOTAyIC00OS4xNiAtMzcuNTc0IC01OC42OTUgbCAtMjM5LjQyIC0xMTAuMTUgYyAtMC4yMDcgLTAuMDgyIC0wLjM3MTEgLTAuMjUgLTAuNTc4MSAtMC4zNTE2IGwgLTEwOC4yNSAtNDkuODgzIHYgMzcyLjI1IGMgMCAzNC4xMzcgMjUuMzg3IDczLjczOCA1Ni4zOTggODguMDM1IGwgMzE3LjE5IDE0Ni4wMyBjIDIuODEyNSAxLjMwNDcgNS45NTcgMi4zMzk4IDkuMDYyNSAzLjM5NDUgbCAzLjE0NDUgLTE5My44IGwgMC4wMDM5IC0xOTYuODIgeiIgY2xhc3M9ImxlZnQiLz4mI3hhOyAgICAgICAgPHBhdGggZD0ibSA3MDguNTkgMjUwLjk2IGMgLTAuNDMzNiAwLjIyNjYgLTAuODA4NiAwLjUzOTEgLTEuMjgxMiAwLjc2NTYgbCAtMjM5LjQ2IDExMC4yMSBjIC0yMC42OTEgOS40OTYxIC0zNy41NzQgMzUuOTE4IC0zNy41NzQgNTguNjc2IHYgMTYyLjEyIGwgMC40NzY2IC0wLjAxOTUgbCAtMC43NDYxIDIyOS44IGMgNC40Njg4IC0xLjM0MzggOC43MTA5IC0yLjkzNzUgMTIuNjIxIC00LjczODMgbCAzMTcuMTcgLTE0Ni4wMyBjIDMwLjk5MiAtMTQuMjc3IDU2LjM5OCAtNTMuODc1IDU2LjM5OCAtODguMDM1IGwgLTAuMDYyNSAtMzcyLjM5IHoiIGNsYXNzPSJyaWdodCIvPiYjeGE7ICAgIDwvZz4mI3hhOzwvc3ZnPg==;shadow=1;textShadow=1;fontFamily=Atkinson Hyperlegible;fontSource=https%3A%2F%2Ffonts.googleapis.com%2Fcss%3Ffamily%3DAtkinson%2BHyperlegible;" parent="1" vertex="1">
          <mxGeometry x="460" y="65" width="30" height="30" as="geometry" />
        </mxCell>
        <mxCell id="xs-MprTF5tvxO5WwdqVo-18" style="edgeStyle=orthogonalEdgeStyle;rounded=0;orthogonalLoop=1;jettySize=auto;html=1;" parent="1" source="xs-MprTF5tvxO5WwdqVo-8" target="xs-MprTF5tvxO5WwdqVo-9" edge="1">
          <mxGeometry relative="1" as="geometry">
            <Array as="points">
              <mxPoint x="528" y="154" />
              <mxPoint x="528" y="120" />
            </Array>
          </mxGeometry>
        </mxCell>
        <mxCell id="fAuRe4YFzYjmmBLXa14k-1" style="edgeStyle=orthogonalEdgeStyle;rounded=0;orthogonalLoop=1;jettySize=auto;html=1;dashed=1;" parent="1" source="xs-MprTF5tvxO5WwdqVo-8" target="0lws74I9KLhbYAXbmXYY-3" edge="1">
          <mxGeometry relative="1" as="geometry">
            <Array as="points">
              <mxPoint x="425" y="163" />
              <mxPoint x="425" y="163" />
            </Array>
          </mxGeometry>
        </mxCell>
        <mxCell id="xs-MprTF5tvxO5WwdqVo-8" value="" style="shape=image;verticalLabelPosition=bottom;labelBackgroundColor=none;verticalAlign=top;aspect=fixed;imageAspect=0;image=data:image/svg+xml,PHN2ZyB4bWxucz0iaHR0cDovL3d3dy53My5vcmcvMjAwMC9zdmciIHZpZXdCb3g9IjAgMCA4NTAgODUwIiB2ZXJzaW9uPSIxLjEiIGhlaWdodD0iODUwcHQiIHdpZHRoPSI4NTBwdCI+JiN4YTsgICAgPHN0eWxlIHR5cGU9InRleHQvY3NzIj4mI3hhOyAgICAgICAgLnRvcCB7JiN4YTsgICAgICAgIGZpbGw6IzZiNzI4MDsmI3hhOyAgICAgICAgfSYjeGE7ICAgICAgICAubGVmdCB7JiN4YTsgICAgICAgIGZpbGw6ICM0YjU1NjM7JiN4YTsgICAgICAgIH0mI3hhOyAgICAgICAgLnJpZ2h0IHsmI3hhOyAgICAgICAgZmlsbDojMWYyOTM3OyYjeGE7ICAgICAgICB9JiN4YTsmI3hhOyAgICAgICAgQG1lZGlhIChwcmVmZXJzLWNvbG9yLXNjaGVtZTogZGFyaykgeyYjeGE7ICAgICAgICAudG9wIHsmI3hhOyAgICAgICAgZmlsbDojZjlmYWZiOyYjeGE7ICAgICAgICB9JiN4YTsgICAgICAgIC5sZWZ0IHsmI3hhOyAgICAgICAgZmlsbDogI2U1ZTdlYjsmI3hhOyAgICAgICAgfSYjeGE7ICAgICAgICAucmlnaHQgeyYjeGE7ICAgICAgICBmaWxsOiAjOWNhM2FmOyYjeGE7ICAgICAgICB9JiN4YTsgICAgICAgIH0mI3hhOyAgICA8L3N0eWxlPiYjeGE7ICAgIDxnPiYjeGE7ICAgICAgICA8cGF0aCBkPSJNIDIzMCAyODAgbCAxNTcuMTggNzIuMzUyIGMgMjAuNjY4IDkuNTE1NiA1NC40OTYgOS41MTU2IDc1LjE0NSAwIGwgMTMyLjY0IC02MS4wNTUgbCAyMTcuNTMgLTEwMy43NCBjIC00LjU3NDIgLTMuNDMzNiAtOS4yNSAtNi41MTU2IC0xNC4xOTEgLTguNzczNCBsIC0zMTcuMDkgLTE0Ni4wMSBjIC0zMC45OTIgLTE0LjI3NyAtODEuNzQ2IC0xNC4yNzcgLTExMi43NiAwIGwgLTMxNy4xOSAxNDYuMDEgYyAtNS4wNzAzIDIuMzE2NCAtOS44NjcyIDUuNTIzNCAtMTQuNTQzIDkuMDYyNSB6IiBjbGFzcz0idG9wIi8+JiN4YTsgICAgICAgIDxwYXRoIGQ9Im0gNDIzLjM0IDQyMC45NiBjIDAgLTIyLjgwMSAtMTYuOTAyIC00OS4xNiAtMzcuNTc0IC01OC42OTUgbCAtMjM5LjQyIC0xMTAuMTUgYyAtMC4yMDcgLTAuMDgyIC0wLjM3MTEgLTAuMjUgLTAuNTc4MSAtMC4zNTE2IGwgLTEwOC4yNSAtNDkuODgzIHYgMzcyLjI1IGMgMCAzNC4xMzcgMjUuMzg3IDczLjczOCA1Ni4zOTggODguMDM1IGwgMzE3LjE5IDE0Ni4wMyBjIDIuODEyNSAxLjMwNDcgNS45NTcgMi4zMzk4IDkuMDYyNSAzLjM5NDUgbCAzLjE0NDUgLTE5My44IGwgMC4wMDM5IC0xOTYuODIgeiIgY2xhc3M9ImxlZnQiLz4mI3hhOyAgICAgICAgPHBhdGggZD0ibSA3MDguNTkgMjUwLjk2IGMgLTAuNDMzNiAwLjIyNjYgLTAuODA4NiAwLjUzOTEgLTEuMjgxMiAwLjc2NTYgbCAtMjM5LjQ2IDExMC4yMSBjIC0yMC42OTEgOS40OTYxIC0zNy41NzQgMzUuOTE4IC0zNy41NzQgNTguNjc2IHYgMTYyLjEyIGwgMC40NzY2IC0wLjAxOTUgbCAtMC43NDYxIDIyOS44IGMgNC40Njg4IC0xLjM0MzggOC43MTA5IC0yLjkzNzUgMTIuNjIxIC00LjczODMgbCAzMTcuMTcgLTE0Ni4wMyBjIDMwLjk5MiAtMTQuMjc3IDU2LjM5OCAtNTMuODc1IDU2LjM5OCAtODguMDM1IGwgLTAuMDYyNSAtMzcyLjM5IHoiIGNsYXNzPSJyaWdodCIvPiYjeGE7ICAgIDwvZz4mI3hhOzwvc3ZnPg==;shadow=1;textShadow=1;fontFamily=Atkinson Hyperlegible;fontSource=https%3A%2F%2Ffonts.googleapis.com%2Fcss%3Ffamily%3DAtkinson%2BHyperlegible;" parent="1" vertex="1">
          <mxGeometry x="460" y="145" width="30" height="30" as="geometry" />
        </mxCell>
        <mxCell id="xs-MprTF5tvxO5WwdqVo-15" style="edgeStyle=orthogonalEdgeStyle;rounded=0;orthogonalLoop=1;jettySize=auto;html=1;" parent="1" source="xs-MprTF5tvxO5WwdqVo-9" target="xs-MprTF5tvxO5WwdqVo-10" edge="1">
          <mxGeometry relative="1" as="geometry">
            <Array as="points">
              <mxPoint x="663" y="110" />
              <mxPoint x="663" y="85" />
            </Array>
          </mxGeometry>
        </mxCell>
        <mxCell id="xs-MprTF5tvxO5WwdqVo-19" style="edgeStyle=orthogonalEdgeStyle;rounded=0;orthogonalLoop=1;jettySize=auto;html=1;" parent="1" source="xs-MprTF5tvxO5WwdqVo-9" target="xs-MprTF5tvxO5WwdqVo-11" edge="1">
          <mxGeometry relative="1" as="geometry">
            <Array as="points">
              <mxPoint x="663" y="119" />
              <mxPoint x="663" y="155" />
            </Array>
          </mxGeometry>
        </mxCell>
        <mxCell id="xs-MprTF5tvxO5WwdqVo-31" style="edgeStyle=orthogonalEdgeStyle;rounded=0;orthogonalLoop=1;jettySize=auto;html=1;dashed=1;" parent="1" source="xs-MprTF5tvxO5WwdqVo-9" target="xs-MprTF5tvxO5WwdqVo-6" edge="1">
          <mxGeometry relative="1" as="geometry">
            <Array as="points">
              <mxPoint x="536" y="104" />
              <mxPoint x="536" y="76" />
            </Array>
          </mxGeometry>
        </mxCell>
        <mxCell id="xs-MprTF5tvxO5WwdqVo-34" style="edgeStyle=orthogonalEdgeStyle;rounded=0;orthogonalLoop=1;jettySize=auto;html=1;dashed=1;" parent="1" source="xs-MprTF5tvxO5WwdqVo-9" target="xs-MprTF5tvxO5WwdqVo-8" edge="1">
          <mxGeometry relative="1" as="geometry">
            <Array as="points">
              <mxPoint x="537" y="127" />
              <mxPoint x="537" y="163" />
            </Array>
          </mxGeometry>
        </mxCell>
        <mxCell id="xs-MprTF5tvxO5WwdqVo-9" value="" style="shape=image;verticalLabelPosition=bottom;labelBackgroundColor=none;verticalAlign=top;aspect=fixed;imageAspect=0;image=data:image/svg+xml,PHN2ZyB4bWxucz0iaHR0cDovL3d3dy53My5vcmcvMjAwMC9zdmciIHZpZXdCb3g9IjAgMCA4NTAgODUwIiB2ZXJzaW9uPSIxLjEiIGhlaWdodD0iODUwcHQiIHdpZHRoPSI4NTBwdCI+JiN4YTsgICAgPHN0eWxlIHR5cGU9InRleHQvY3NzIj4mI3hhOyAgICAgICAgLnRvcCB7JiN4YTsgICAgICAgIGZpbGw6IzZiNzI4MDsmI3hhOyAgICAgICAgfSYjeGE7ICAgICAgICAubGVmdCB7JiN4YTsgICAgICAgIGZpbGw6ICM0YjU1NjM7JiN4YTsgICAgICAgIH0mI3hhOyAgICAgICAgLnJpZ2h0IHsmI3hhOyAgICAgICAgZmlsbDojMWYyOTM3OyYjeGE7ICAgICAgICB9JiN4YTsmI3hhOyAgICAgICAgQG1lZGlhIChwcmVmZXJzLWNvbG9yLXNjaGVtZTogZGFyaykgeyYjeGE7ICAgICAgICAudG9wIHsmI3hhOyAgICAgICAgZmlsbDojZjlmYWZiOyYjeGE7ICAgICAgICB9JiN4YTsgICAgICAgIC5sZWZ0IHsmI3hhOyAgICAgICAgZmlsbDogI2U1ZTdlYjsmI3hhOyAgICAgICAgfSYjeGE7ICAgICAgICAucmlnaHQgeyYjeGE7ICAgICAgICBmaWxsOiAjOWNhM2FmOyYjeGE7ICAgICAgICB9JiN4YTsgICAgICAgIH0mI3hhOyAgICA8L3N0eWxlPiYjeGE7ICAgIDxnPiYjeGE7ICAgICAgICA8cGF0aCBkPSJNIDIzMCAyODAgbCAxNTcuMTggNzIuMzUyIGMgMjAuNjY4IDkuNTE1NiA1NC40OTYgOS41MTU2IDc1LjE0NSAwIGwgMTMyLjY0IC02MS4wNTUgbCAyMTcuNTMgLTEwMy43NCBjIC00LjU3NDIgLTMuNDMzNiAtOS4yNSAtNi41MTU2IC0xNC4xOTEgLTguNzczNCBsIC0zMTcuMDkgLTE0Ni4wMSBjIC0zMC45OTIgLTE0LjI3NyAtODEuNzQ2IC0xNC4yNzcgLTExMi43NiAwIGwgLTMxNy4xOSAxNDYuMDEgYyAtNS4wNzAzIDIuMzE2NCAtOS44NjcyIDUuNTIzNCAtMTQuNTQzIDkuMDYyNSB6IiBjbGFzcz0idG9wIi8+JiN4YTsgICAgICAgIDxwYXRoIGQ9Im0gNDIzLjM0IDQyMC45NiBjIDAgLTIyLjgwMSAtMTYuOTAyIC00OS4xNiAtMzcuNTc0IC01OC42OTUgbCAtMjM5LjQyIC0xMTAuMTUgYyAtMC4yMDcgLTAuMDgyIC0wLjM3MTEgLTAuMjUgLTAuNTc4MSAtMC4zNTE2IGwgLTEwOC4yNSAtNDkuODgzIHYgMzcyLjI1IGMgMCAzNC4xMzcgMjUuMzg3IDczLjczOCA1Ni4zOTggODguMDM1IGwgMzE3LjE5IDE0Ni4wMyBjIDIuODEyNSAxLjMwNDcgNS45NTcgMi4zMzk4IDkuMDYyNSAzLjM5NDUgbCAzLjE0NDUgLTE5My44IGwgMC4wMDM5IC0xOTYuODIgeiIgY2xhc3M9ImxlZnQiLz4mI3hhOyAgICAgICAgPHBhdGggZD0ibSA3MDguNTkgMjUwLjk2IGMgLTAuNDMzNiAwLjIyNjYgLTAuODA4NiAwLjUzOTEgLTEuMjgxMiAwLjc2NTYgbCAtMjM5LjQ2IDExMC4yMSBjIC0yMC42OTEgOS40OTYxIC0zNy41NzQgMzUuOTE4IC0zNy41NzQgNTguNjc2IHYgMTYyLjEyIGwgMC40NzY2IC0wLjAxOTUgbCAtMC43NDYxIDIyOS44IGMgNC40Njg4IC0xLjM0MzggOC43MTA5IC0yLjkzNzUgMTIuNjIxIC00LjczODMgbCAzMTcuMTcgLTE0Ni4wMyBjIDMwLjk5MiAtMTQuMjc3IDU2LjM5OCAtNTMuODc1IDU2LjM5OCAtODguMDM1IGwgLTAuMDYyNSAtMzcyLjM5IHoiIGNsYXNzPSJyaWdodCIvPiYjeGE7ICAgIDwvZz4mI3hhOzwvc3ZnPg==;shadow=1;textShadow=1;fontFamily=Atkinson Hyperlegible;fontSource=https%3A%2F%2Ffonts.googleapis.com%2Fcss%3Ffamily%3DAtkinson%2BHyperlegible;" parent="1" vertex="1">
          <mxGeometry x="565" y="85" width="60" height="60" as="geometry" />
        </mxCell>
        <mxCell id="xs-MprTF5tvxO5WwdqVo-16" style="edgeStyle=orthogonalEdgeStyle;rounded=0;orthogonalLoop=1;jettySize=auto;html=1;" parent="1" source="xs-MprTF5tvxO5WwdqVo-10" target="xs-MprTF5tvxO5WwdqVo-2" edge="1">
          <mxGeometry relative="1" as="geometry">
            <Array as="points">
              <mxPoint x="769" y="85" />
              <mxPoint x="769" y="85" />
            </Array>
          </mxGeometry>
        </mxCell>
        <mxCell id="xs-MprTF5tvxO5WwdqVo-28" style="edgeStyle=orthogonalEdgeStyle;rounded=0;orthogonalLoop=1;jettySize=auto;html=1;dashed=1;" parent="1" source="xs-MprTF5tvxO5WwdqVo-10" target="xs-MprTF5tvxO5WwdqVo-9" edge="1">
          <mxGeometry relative="1" as="geometry">
            <Array as="points">
              <mxPoint x="656" y="76" />
              <mxPoint x="656" y="103" />
            </Array>
          </mxGeometry>
        </mxCell>
        <mxCell id="xs-MprTF5tvxO5WwdqVo-10" value="" style="shape=image;verticalLabelPosition=bottom;labelBackgroundColor=none;verticalAlign=top;aspect=fixed;imageAspect=0;image=data:image/svg+xml,PHN2ZyB4bWxucz0iaHR0cDovL3d3dy53My5vcmcvMjAwMC9zdmciIHZpZXdCb3g9IjAgMCA4NTAgODUwIiB2ZXJzaW9uPSIxLjEiIGhlaWdodD0iODUwcHQiIHdpZHRoPSI4NTBwdCI+JiN4YTsgICAgPHN0eWxlIHR5cGU9InRleHQvY3NzIj4mI3hhOyAgICAgICAgLnRvcCB7JiN4YTsgICAgICAgIGZpbGw6IzZiNzI4MDsmI3hhOyAgICAgICAgfSYjeGE7ICAgICAgICAubGVmdCB7JiN4YTsgICAgICAgIGZpbGw6ICM0YjU1NjM7JiN4YTsgICAgICAgIH0mI3hhOyAgICAgICAgLnJpZ2h0IHsmI3hhOyAgICAgICAgZmlsbDojMWYyOTM3OyYjeGE7ICAgICAgICB9JiN4YTsmI3hhOyAgICAgICAgQG1lZGlhIChwcmVmZXJzLWNvbG9yLXNjaGVtZTogZGFyaykgeyYjeGE7ICAgICAgICAudG9wIHsmI3hhOyAgICAgICAgZmlsbDojZjlmYWZiOyYjeGE7ICAgICAgICB9JiN4YTsgICAgICAgIC5sZWZ0IHsmI3hhOyAgICAgICAgZmlsbDogI2U1ZTdlYjsmI3hhOyAgICAgICAgfSYjeGE7ICAgICAgICAucmlnaHQgeyYjeGE7ICAgICAgICBmaWxsOiAjOWNhM2FmOyYjeGE7ICAgICAgICB9JiN4YTsgICAgICAgIH0mI3hhOyAgICA8L3N0eWxlPiYjeGE7ICAgIDxnPiYjeGE7ICAgICAgICA8cGF0aCBkPSJNIDIzMCAyODAgbCAxNTcuMTggNzIuMzUyIGMgMjAuNjY4IDkuNTE1NiA1NC40OTYgOS41MTU2IDc1LjE0NSAwIGwgMTMyLjY0IC02MS4wNTUgbCAyMTcuNTMgLTEwMy43NCBjIC00LjU3NDIgLTMuNDMzNiAtOS4yNSAtNi41MTU2IC0xNC4xOTEgLTguNzczNCBsIC0zMTcuMDkgLTE0Ni4wMSBjIC0zMC45OTIgLTE0LjI3NyAtODEuNzQ2IC0xNC4yNzcgLTExMi43NiAwIGwgLTMxNy4xOSAxNDYuMDEgYyAtNS4wNzAzIDIuMzE2NCAtOS44NjcyIDUuNTIzNCAtMTQuNTQzIDkuMDYyNSB6IiBjbGFzcz0idG9wIi8+JiN4YTsgICAgICAgIDxwYXRoIGQ9Im0gNDIzLjM0IDQyMC45NiBjIDAgLTIyLjgwMSAtMTYuOTAyIC00OS4xNiAtMzcuNTc0IC01OC42OTUgbCAtMjM5LjQyIC0xMTAuMTUgYyAtMC4yMDcgLTAuMDgyIC0wLjM3MTEgLTAuMjUgLTAuNTc4MSAtMC4zNTE2IGwgLTEwOC4yNSAtNDkuODgzIHYgMzcyLjI1IGMgMCAzNC4xMzcgMjUuMzg3IDczLjczOCA1Ni4zOTggODguMDM1IGwgMzE3LjE5IDE0Ni4wMyBjIDIuODEyNSAxLjMwNDcgNS45NTcgMi4zMzk4IDkuMDYyNSAzLjM5NDUgbCAzLjE0NDUgLTE5My44IGwgMC4wMDM5IC0xOTYuODIgeiIgY2xhc3M9ImxlZnQiLz4mI3hhOyAgICAgICAgPHBhdGggZD0ibSA3MDguNTkgMjUwLjk2IGMgLTAuNDMzNiAwLjIyNjYgLTAuODA4NiAwLjUzOTEgLTEuMjgxMiAwLjc2NTYgbCAtMjM5LjQ2IDExMC4yMSBjIC0yMC42OTEgOS40OTYxIC0zNy41NzQgMzUuOTE4IC0zNy41NzQgNTguNjc2IHYgMTYyLjEyIGwgMC40NzY2IC0wLjAxOTUgbCAtMC43NDYxIDIyOS44IGMgNC40Njg4IC0xLjM0MzggOC43MTA5IC0yLjkzNzUgMTIuNjIxIC00LjczODMgbCAzMTcuMTcgLTE0Ni4wMyBjIDMwLjk5MiAtMTQuMjc3IDU2LjM5OCAtNTMuODc1IDU2LjM5OCAtODguMDM1IGwgLTAuMDYyNSAtMzcyLjM5IHoiIGNsYXNzPSJyaWdodCIvPiYjeGE7ICAgIDwvZz4mI3hhOzwvc3ZnPg==;shadow=1;textShadow=1;fontFamily=Atkinson Hyperlegible;fontSource=https%3A%2F%2Ffonts.googleapis.com%2Fcss%3Ffamily%3DAtkinson%2BHyperlegible;" parent="1" vertex="1">
          <mxGeometry x="700" y="65" width="30" height="30" as="geometry" />
        </mxCell>
        <mxCell id="xs-MprTF5tvxO5WwdqVo-20" style="edgeStyle=orthogonalEdgeStyle;rounded=0;orthogonalLoop=1;jettySize=auto;html=1;" parent="1" edge="1">
          <mxGeometry relative="1" as="geometry">
            <mxPoint x="730" y="155.00395256916994" as="sourcePoint" />
            <mxPoint x="810" y="155.00395256916994" as="targetPoint" />
            <Array as="points">
              <mxPoint x="770" y="155" />
              <mxPoint x="770" y="155" />
            </Array>
          </mxGeometry>
        </mxCell>
        <mxCell id="xs-MprTF5tvxO5WwdqVo-26" style="edgeStyle=orthogonalEdgeStyle;rounded=0;orthogonalLoop=1;jettySize=auto;html=1;dashed=1;" parent="1" source="xs-MprTF5tvxO5WwdqVo-11" target="xs-MprTF5tvxO5WwdqVo-9" edge="1">
          <mxGeometry relative="1" as="geometry">
            <Array as="points">
              <mxPoint x="656" y="164" />
              <mxPoint x="656" y="126" />
            </Array>
          </mxGeometry>
        </mxCell>
        <mxCell id="xs-MprTF5tvxO5WwdqVo-11" value="" style="shape=image;verticalLabelPosition=bottom;labelBackgroundColor=none;verticalAlign=top;aspect=fixed;imageAspect=0;image=data:image/svg+xml,PHN2ZyB4bWxucz0iaHR0cDovL3d3dy53My5vcmcvMjAwMC9zdmciIHZpZXdCb3g9IjAgMCA4NTAgODUwIiB2ZXJzaW9uPSIxLjEiIGhlaWdodD0iODUwcHQiIHdpZHRoPSI4NTBwdCI+JiN4YTsgICAgPHN0eWxlIHR5cGU9InRleHQvY3NzIj4mI3hhOyAgICAgICAgLnRvcCB7JiN4YTsgICAgICAgIGZpbGw6IzZiNzI4MDsmI3hhOyAgICAgICAgfSYjeGE7ICAgICAgICAubGVmdCB7JiN4YTsgICAgICAgIGZpbGw6ICM0YjU1NjM7JiN4YTsgICAgICAgIH0mI3hhOyAgICAgICAgLnJpZ2h0IHsmI3hhOyAgICAgICAgZmlsbDojMWYyOTM3OyYjeGE7ICAgICAgICB9JiN4YTsmI3hhOyAgICAgICAgQG1lZGlhIChwcmVmZXJzLWNvbG9yLXNjaGVtZTogZGFyaykgeyYjeGE7ICAgICAgICAudG9wIHsmI3hhOyAgICAgICAgZmlsbDojZjlmYWZiOyYjeGE7ICAgICAgICB9JiN4YTsgICAgICAgIC5sZWZ0IHsmI3hhOyAgICAgICAgZmlsbDogI2U1ZTdlYjsmI3hhOyAgICAgICAgfSYjeGE7ICAgICAgICAucmlnaHQgeyYjeGE7ICAgICAgICBmaWxsOiAjOWNhM2FmOyYjeGE7ICAgICAgICB9JiN4YTsgICAgICAgIH0mI3hhOyAgICA8L3N0eWxlPiYjeGE7ICAgIDxnPiYjeGE7ICAgICAgICA8cGF0aCBkPSJNIDIzMCAyODAgbCAxNTcuMTggNzIuMzUyIGMgMjAuNjY4IDkuNTE1NiA1NC40OTYgOS41MTU2IDc1LjE0NSAwIGwgMTMyLjY0IC02MS4wNTUgbCAyMTcuNTMgLTEwMy43NCBjIC00LjU3NDIgLTMuNDMzNiAtOS4yNSAtNi41MTU2IC0xNC4xOTEgLTguNzczNCBsIC0zMTcuMDkgLTE0Ni4wMSBjIC0zMC45OTIgLTE0LjI3NyAtODEuNzQ2IC0xNC4yNzcgLTExMi43NiAwIGwgLTMxNy4xOSAxNDYuMDEgYyAtNS4wNzAzIDIuMzE2NCAtOS44NjcyIDUuNTIzNCAtMTQuNTQzIDkuMDYyNSB6IiBjbGFzcz0idG9wIi8+JiN4YTsgICAgICAgIDxwYXRoIGQ9Im0gNDIzLjM0IDQyMC45NiBjIDAgLTIyLjgwMSAtMTYuOTAyIC00OS4xNiAtMzcuNTc0IC01OC42OTUgbCAtMjM5LjQyIC0xMTAuMTUgYyAtMC4yMDcgLTAuMDgyIC0wLjM3MTEgLTAuMjUgLTAuNTc4MSAtMC4zNTE2IGwgLTEwOC4yNSAtNDkuODgzIHYgMzcyLjI1IGMgMCAzNC4xMzcgMjUuMzg3IDczLjczOCA1Ni4zOTggODguMDM1IGwgMzE3LjE5IDE0Ni4wMyBjIDIuODEyNSAxLjMwNDcgNS45NTcgMi4zMzk4IDkuMDYyNSAzLjM5NDUgbCAzLjE0NDUgLTE5My44IGwgMC4wMDM5IC0xOTYuODIgeiIgY2xhc3M9ImxlZnQiLz4mI3hhOyAgICAgICAgPHBhdGggZD0ibSA3MDguNTkgMjUwLjk2IGMgLTAuNDMzNiAwLjIyNjYgLTAuODA4NiAwLjUzOTEgLTEuMjgxMiAwLjc2NTYgbCAtMjM5LjQ2IDExMC4yMSBjIC0yMC42OTEgOS40OTYxIC0zNy41NzQgMzUuOTE4IC0zNy41NzQgNTguNjc2IHYgMTYyLjEyIGwgMC40NzY2IC0wLjAxOTUgbCAtMC43NDYxIDIyOS44IGMgNC40Njg4IC0xLjM0MzggOC43MTA5IC0yLjkzNzUgMTIuNjIxIC00LjczODMgbCAzMTcuMTcgLTE0Ni4wMyBjIDMwLjk5MiAtMTQuMjc3IDU2LjM5OCAtNTMuODc1IDU2LjM5OCAtODguMDM1IGwgLTAuMDYyNSAtMzcyLjM5IHoiIGNsYXNzPSJyaWdodCIvPiYjeGE7ICAgIDwvZz4mI3hhOzwvc3ZnPg==;shadow=1;textShadow=1;fontFamily=Atkinson Hyperlegible;fontSource=https%3A%2F%2Ffonts.googleapis.com%2Fcss%3Ffamily%3DAtkinson%2BHyperlegible;" parent="1" vertex="1">
          <mxGeometry x="700" y="145" width="30" height="30" as="geometry" />
        </mxCell>
        <mxCell id="xs-MprTF5tvxO5WwdqVo-23" style="edgeStyle=orthogonalEdgeStyle;rounded=0;orthogonalLoop=1;jettySize=auto;html=1;labelBackgroundColor=none;dashed=1;" parent="1" edge="1">
          <mxGeometry relative="1" as="geometry">
            <mxPoint x="810" y="164" as="sourcePoint" />
            <mxPoint x="730" y="164" as="targetPoint" />
            <Array as="points">
              <mxPoint x="780" y="164" />
              <mxPoint x="780" y="164" />
            </Array>
          </mxGeometry>
        </mxCell>
        <mxCell id="CABz82fo70wp0chgf_nB-3" style="edgeStyle=orthogonalEdgeStyle;rounded=0;orthogonalLoop=1;jettySize=auto;html=1;endArrow=classic;endFill=1;" parent="1" source="fAuRe4YFzYjmmBLXa14k-4" target="fAuRe4YFzYjmmBLXa14k-16" edge="1">
          <mxGeometry relative="1" as="geometry">
            <Array as="points">
              <mxPoint x="424" y="239" />
              <mxPoint x="424" y="239" />
            </Array>
          </mxGeometry>
        </mxCell>
        <mxCell id="fAuRe4YFzYjmmBLXa14k-4" value="" style="shape=image;verticalLabelPosition=bottom;labelBackgroundColor=none;verticalAlign=top;aspect=fixed;imageAspect=0;image=data:image/svg+xml,PHN2ZyB4bWxucz0iaHR0cDovL3d3dy53My5vcmcvMjAwMC9zdmciIHZpZXdCb3g9IjAgMCA4NTAgODUwIiB2ZXJzaW9uPSIxLjEiIGhlaWdodD0iODUwcHQiIHdpZHRoPSI4NTBwdCI+JiN4YTsgICAgPHN0eWxlIHR5cGU9InRleHQvY3NzIj4mI3hhOyAgICAgICAgLnRvcCB7JiN4YTsgICAgICAgIGZpbGw6IzZiNzI4MDsmI3hhOyAgICAgICAgfSYjeGE7ICAgICAgICAubGVmdCB7JiN4YTsgICAgICAgIGZpbGw6ICM0YjU1NjM7JiN4YTsgICAgICAgIH0mI3hhOyAgICAgICAgLnJpZ2h0IHsmI3hhOyAgICAgICAgZmlsbDojMWYyOTM3OyYjeGE7ICAgICAgICB9JiN4YTsmI3hhOyAgICAgICAgQG1lZGlhIChwcmVmZXJzLWNvbG9yLXNjaGVtZTogZGFyaykgeyYjeGE7ICAgICAgICAudG9wIHsmI3hhOyAgICAgICAgZmlsbDojZjlmYWZiOyYjeGE7ICAgICAgICB9JiN4YTsgICAgICAgIC5sZWZ0IHsmI3hhOyAgICAgICAgZmlsbDogI2U1ZTdlYjsmI3hhOyAgICAgICAgfSYjeGE7ICAgICAgICAucmlnaHQgeyYjeGE7ICAgICAgICBmaWxsOiAjOWNhM2FmOyYjeGE7ICAgICAgICB9JiN4YTsgICAgICAgIH0mI3hhOyAgICA8L3N0eWxlPiYjeGE7ICAgIDxnPiYjeGE7ICAgICAgICA8cGF0aCBkPSJNIDIzMCAyODAgbCAxNTcuMTggNzIuMzUyIGMgMjAuNjY4IDkuNTE1NiA1NC40OTYgOS41MTU2IDc1LjE0NSAwIGwgMTMyLjY0IC02MS4wNTUgbCAyMTcuNTMgLTEwMy43NCBjIC00LjU3NDIgLTMuNDMzNiAtOS4yNSAtNi41MTU2IC0xNC4xOTEgLTguNzczNCBsIC0zMTcuMDkgLTE0Ni4wMSBjIC0zMC45OTIgLTE0LjI3NyAtODEuNzQ2IC0xNC4yNzcgLTExMi43NiAwIGwgLTMxNy4xOSAxNDYuMDEgYyAtNS4wNzAzIDIuMzE2NCAtOS44NjcyIDUuNTIzNCAtMTQuNTQzIDkuMDYyNSB6IiBjbGFzcz0idG9wIi8+JiN4YTsgICAgICAgIDxwYXRoIGQ9Im0gNDIzLjM0IDQyMC45NiBjIDAgLTIyLjgwMSAtMTYuOTAyIC00OS4xNiAtMzcuNTc0IC01OC42OTUgbCAtMjM5LjQyIC0xMTAuMTUgYyAtMC4yMDcgLTAuMDgyIC0wLjM3MTEgLTAuMjUgLTAuNTc4MSAtMC4zNTE2IGwgLTEwOC4yNSAtNDkuODgzIHYgMzcyLjI1IGMgMCAzNC4xMzcgMjUuMzg3IDczLjczOCA1Ni4zOTggODguMDM1IGwgMzE3LjE5IDE0Ni4wMyBjIDIuODEyNSAxLjMwNDcgNS45NTcgMi4zMzk4IDkuMDYyNSAzLjM5NDUgbCAzLjE0NDUgLTE5My44IGwgMC4wMDM5IC0xOTYuODIgeiIgY2xhc3M9ImxlZnQiLz4mI3hhOyAgICAgICAgPHBhdGggZD0ibSA3MDguNTkgMjUwLjk2IGMgLTAuNDMzNiAwLjIyNjYgLTAuODA4NiAwLjUzOTEgLTEuMjgxMiAwLjc2NTYgbCAtMjM5LjQ2IDExMC4yMSBjIC0yMC42OTEgOS40OTYxIC0zNy41NzQgMzUuOTE4IC0zNy41NzQgNTguNjc2IHYgMTYyLjEyIGwgMC40NzY2IC0wLjAxOTUgbCAtMC43NDYxIDIyOS44IGMgNC40Njg4IC0xLjM0MzggOC43MTA5IC0yLjkzNzUgMTIuNjIxIC00LjczODMgbCAzMTcuMTcgLTE0Ni4wMyBjIDMwLjk5MiAtMTQuMjc3IDU2LjM5OCAtNTMuODc1IDU2LjM5OCAtODguMDM1IGwgLTAuMDYyNSAtMzcyLjM5IHoiIGNsYXNzPSJyaWdodCIvPiYjeGE7ICAgIDwvZz4mI3hhOzwvc3ZnPg==;shadow=1;textShadow=1;fontFamily=Atkinson Hyperlegible;fontSource=https%3A%2F%2Ffonts.googleapis.com%2Fcss%3Ffamily%3DAtkinson%2BHyperlegible;" parent="1" vertex="1">
          <mxGeometry x="330" y="214" width="60" height="60" as="geometry" />
        </mxCell>
        <mxCell id="fAuRe4YFzYjmmBLXa14k-5" value="Producer" style="text;html=1;align=center;verticalAlign=middle;whiteSpace=wrap;rounded=0;fontFamily=Atkinson Hyperlegible;fontSource=https%3A%2F%2Ffonts.googleapis.com%2Fcss%3Ffamily%3DAtkinson%2BHyperlegible;" parent="1" vertex="1">
          <mxGeometry x="330" y="264" width="60" height="30" as="geometry" />
        </mxCell>
        <mxCell id="CABz82fo70wp0chgf_nB-2" style="edgeStyle=orthogonalEdgeStyle;rounded=0;orthogonalLoop=1;jettySize=auto;html=1;endArrow=classic;endFill=1;" parent="1" source="fAuRe4YFzYjmmBLXa14k-7" target="fAuRe4YFzYjmmBLXa14k-19" edge="1">
          <mxGeometry relative="1" as="geometry">
            <Array as="points">
              <mxPoint x="430" y="318" />
              <mxPoint x="430" y="318" />
            </Array>
          </mxGeometry>
        </mxCell>
        <mxCell id="fAuRe4YFzYjmmBLXa14k-7" value="" style="shape=image;verticalLabelPosition=bottom;labelBackgroundColor=none;verticalAlign=top;aspect=fixed;imageAspect=0;image=data:image/svg+xml,PHN2ZyB4bWxucz0iaHR0cDovL3d3dy53My5vcmcvMjAwMC9zdmciIHZpZXdCb3g9IjAgMCA4NTAgODUwIiB2ZXJzaW9uPSIxLjEiIGhlaWdodD0iODUwcHQiIHdpZHRoPSI4NTBwdCI+JiN4YTsgICAgPHN0eWxlIHR5cGU9InRleHQvY3NzIj4mI3hhOyAgICAgICAgLnRvcCB7JiN4YTsgICAgICAgIGZpbGw6IzZiNzI4MDsmI3hhOyAgICAgICAgfSYjeGE7ICAgICAgICAubGVmdCB7JiN4YTsgICAgICAgIGZpbGw6ICM0YjU1NjM7JiN4YTsgICAgICAgIH0mI3hhOyAgICAgICAgLnJpZ2h0IHsmI3hhOyAgICAgICAgZmlsbDojMWYyOTM3OyYjeGE7ICAgICAgICB9JiN4YTsmI3hhOyAgICAgICAgQG1lZGlhIChwcmVmZXJzLWNvbG9yLXNjaGVtZTogZGFyaykgeyYjeGE7ICAgICAgICAudG9wIHsmI3hhOyAgICAgICAgZmlsbDojZjlmYWZiOyYjeGE7ICAgICAgICB9JiN4YTsgICAgICAgIC5sZWZ0IHsmI3hhOyAgICAgICAgZmlsbDogI2U1ZTdlYjsmI3hhOyAgICAgICAgfSYjeGE7ICAgICAgICAucmlnaHQgeyYjeGE7ICAgICAgICBmaWxsOiAjOWNhM2FmOyYjeGE7ICAgICAgICB9JiN4YTsgICAgICAgIH0mI3hhOyAgICA8L3N0eWxlPiYjeGE7ICAgIDxnPiYjeGE7ICAgICAgICA8cGF0aCBkPSJNIDIzMCAyODAgbCAxNTcuMTggNzIuMzUyIGMgMjAuNjY4IDkuNTE1NiA1NC40OTYgOS41MTU2IDc1LjE0NSAwIGwgMTMyLjY0IC02MS4wNTUgbCAyMTcuNTMgLTEwMy43NCBjIC00LjU3NDIgLTMuNDMzNiAtOS4yNSAtNi41MTU2IC0xNC4xOTEgLTguNzczNCBsIC0zMTcuMDkgLTE0Ni4wMSBjIC0zMC45OTIgLTE0LjI3NyAtODEuNzQ2IC0xNC4yNzcgLTExMi43NiAwIGwgLTMxNy4xOSAxNDYuMDEgYyAtNS4wNzAzIDIuMzE2NCAtOS44NjcyIDUuNTIzNCAtMTQuNTQzIDkuMDYyNSB6IiBjbGFzcz0idG9wIi8+JiN4YTsgICAgICAgIDxwYXRoIGQ9Im0gNDIzLjM0IDQyMC45NiBjIDAgLTIyLjgwMSAtMTYuOTAyIC00OS4xNiAtMzcuNTc0IC01OC42OTUgbCAtMjM5LjQyIC0xMTAuMTUgYyAtMC4yMDcgLTAuMDgyIC0wLjM3MTEgLTAuMjUgLTAuNTc4MSAtMC4zNTE2IGwgLTEwOC4yNSAtNDkuODgzIHYgMzcyLjI1IGMgMCAzNC4xMzcgMjUuMzg3IDczLjczOCA1Ni4zOTggODguMDM1IGwgMzE3LjE5IDE0Ni4wMyBjIDIuODEyNSAxLjMwNDcgNS45NTcgMi4zMzk4IDkuMDYyNSAzLjM5NDUgbCAzLjE0NDUgLTE5My44IGwgMC4wMDM5IC0xOTYuODIgeiIgY2xhc3M9ImxlZnQiLz4mI3hhOyAgICAgICAgPHBhdGggZD0ibSA3MDguNTkgMjUwLjk2IGMgLTAuNDMzNiAwLjIyNjYgLTAuODA4NiAwLjUzOTEgLTEuMjgxMiAwLjc2NTYgbCAtMjM5LjQ2IDExMC4yMSBjIC0yMC42OTEgOS40OTYxIC0zNy41NzQgMzUuOTE4IC0zNy41NzQgNTguNjc2IHYgMTYyLjEyIGwgMC40NzY2IC0wLjAxOTUgbCAtMC43NDYxIDIyOS44IGMgNC40Njg4IC0xLjM0MzggOC43MTA5IC0yLjkzNzUgMTIuNjIxIC00LjczODMgbCAzMTcuMTcgLTE0Ni4wMyBjIDMwLjk5MiAtMTQuMjc3IDU2LjM5OCAtNTMuODc1IDU2LjM5OCAtODguMDM1IGwgLTAuMDYyNSAtMzcyLjM5IHoiIGNsYXNzPSJyaWdodCIvPiYjeGE7ICAgIDwvZz4mI3hhOzwvc3ZnPg==;shadow=1;textShadow=1;fontFamily=Atkinson Hyperlegible;fontSource=https%3A%2F%2Ffonts.googleapis.com%2Fcss%3Ffamily%3DAtkinson%2BHyperlegible;" parent="1" vertex="1">
          <mxGeometry x="330" y="294" width="60" height="60" as="geometry" />
        </mxCell>
        <mxCell id="fAuRe4YFzYjmmBLXa14k-8" value="Producer" style="text;html=1;align=center;verticalAlign=middle;whiteSpace=wrap;rounded=0;fontFamily=Atkinson Hyperlegible;fontSource=https%3A%2F%2Ffonts.googleapis.com%2Fcss%3Ffamily%3DAtkinson%2BHyperlegible;" parent="1" vertex="1">
          <mxGeometry x="330" y="344" width="60" height="30" as="geometry" />
        </mxCell>
        <mxCell id="CABz82fo70wp0chgf_nB-12" style="edgeStyle=orthogonalEdgeStyle;rounded=0;orthogonalLoop=1;jettySize=auto;html=1;dashed=1;" parent="1" source="fAuRe4YFzYjmmBLXa14k-10" target="fAuRe4YFzYjmmBLXa14k-27" edge="1">
          <mxGeometry relative="1" as="geometry">
            <Array as="points">
              <mxPoint x="769" y="250" />
              <mxPoint x="769" y="250" />
            </Array>
          </mxGeometry>
        </mxCell>
        <mxCell id="fAuRe4YFzYjmmBLXa14k-10" value="" style="shape=image;verticalLabelPosition=bottom;labelBackgroundColor=none;verticalAlign=top;aspect=fixed;imageAspect=0;image=data:image/svg+xml,PHN2ZyB4bWxucz0iaHR0cDovL3d3dy53My5vcmcvMjAwMC9zdmciIHZpZXdCb3g9IjAgMCA4NTAgODUwIiB2ZXJzaW9uPSIxLjEiIGhlaWdodD0iODUwcHQiIHdpZHRoPSI4NTBwdCI+JiN4YTsgICAgPHN0eWxlIHR5cGU9InRleHQvY3NzIj4mI3hhOyAgICAgICAgLnRvcCB7JiN4YTsgICAgICAgIGZpbGw6IzZiNzI4MDsmI3hhOyAgICAgICAgfSYjeGE7ICAgICAgICAubGVmdCB7JiN4YTsgICAgICAgIGZpbGw6ICM0YjU1NjM7JiN4YTsgICAgICAgIH0mI3hhOyAgICAgICAgLnJpZ2h0IHsmI3hhOyAgICAgICAgZmlsbDojMWYyOTM3OyYjeGE7ICAgICAgICB9JiN4YTsmI3hhOyAgICAgICAgQG1lZGlhIChwcmVmZXJzLWNvbG9yLXNjaGVtZTogZGFyaykgeyYjeGE7ICAgICAgICAudG9wIHsmI3hhOyAgICAgICAgZmlsbDojZjlmYWZiOyYjeGE7ICAgICAgICB9JiN4YTsgICAgICAgIC5sZWZ0IHsmI3hhOyAgICAgICAgZmlsbDogI2U1ZTdlYjsmI3hhOyAgICAgICAgfSYjeGE7ICAgICAgICAucmlnaHQgeyYjeGE7ICAgICAgICBmaWxsOiAjOWNhM2FmOyYjeGE7ICAgICAgICB9JiN4YTsgICAgICAgIH0mI3hhOyAgICA8L3N0eWxlPiYjeGE7ICAgIDxnPiYjeGE7ICAgICAgICA8cGF0aCBkPSJNIDIzMCAyODAgbCAxNTcuMTggNzIuMzUyIGMgMjAuNjY4IDkuNTE1NiA1NC40OTYgOS41MTU2IDc1LjE0NSAwIGwgMTMyLjY0IC02MS4wNTUgbCAyMTcuNTMgLTEwMy43NCBjIC00LjU3NDIgLTMuNDMzNiAtOS4yNSAtNi41MTU2IC0xNC4xOTEgLTguNzczNCBsIC0zMTcuMDkgLTE0Ni4wMSBjIC0zMC45OTIgLTE0LjI3NyAtODEuNzQ2IC0xNC4yNzcgLTExMi43NiAwIGwgLTMxNy4xOSAxNDYuMDEgYyAtNS4wNzAzIDIuMzE2NCAtOS44NjcyIDUuNTIzNCAtMTQuNTQzIDkuMDYyNSB6IiBjbGFzcz0idG9wIi8+JiN4YTsgICAgICAgIDxwYXRoIGQ9Im0gNDIzLjM0IDQyMC45NiBjIDAgLTIyLjgwMSAtMTYuOTAyIC00OS4xNiAtMzcuNTc0IC01OC42OTUgbCAtMjM5LjQyIC0xMTAuMTUgYyAtMC4yMDcgLTAuMDgyIC0wLjM3MTEgLTAuMjUgLTAuNTc4MSAtMC4zNTE2IGwgLTEwOC4yNSAtNDkuODgzIHYgMzcyLjI1IGMgMCAzNC4xMzcgMjUuMzg3IDczLjczOCA1Ni4zOTggODguMDM1IGwgMzE3LjE5IDE0Ni4wMyBjIDIuODEyNSAxLjMwNDcgNS45NTcgMi4zMzk4IDkuMDYyNSAzLjM5NDUgbCAzLjE0NDUgLTE5My44IGwgMC4wMDM5IC0xOTYuODIgeiIgY2xhc3M9ImxlZnQiLz4mI3hhOyAgICAgICAgPHBhdGggZD0ibSA3MDguNTkgMjUwLjk2IGMgLTAuNDMzNiAwLjIyNjYgLTAuODA4NiAwLjUzOTEgLTEuMjgxMiAwLjc2NTYgbCAtMjM5LjQ2IDExMC4yMSBjIC0yMC42OTEgOS40OTYxIC0zNy41NzQgMzUuOTE4IC0zNy41NzQgNTguNjc2IHYgMTYyLjEyIGwgMC40NzY2IC0wLjAxOTUgbCAtMC43NDYxIDIyOS44IGMgNC40Njg4IC0xLjM0MzggOC43MTA5IC0yLjkzNzUgMTIuNjIxIC00LjczODMgbCAzMTcuMTcgLTE0Ni4wMyBjIDMwLjk5MiAtMTQuMjc3IDU2LjM5OCAtNTMuODc1IDU2LjM5OCAtODguMDM1IGwgLTAuMDYyNSAtMzcyLjM5IHoiIGNsYXNzPSJyaWdodCIvPiYjeGE7ICAgIDwvZz4mI3hhOzwvc3ZnPg==;shadow=1;textShadow=1;fontFamily=Atkinson Hyperlegible;fontSource=https%3A%2F%2Ffonts.googleapis.com%2Fcss%3Ffamily%3DAtkinson%2BHyperlegible;" parent="1" vertex="1">
          <mxGeometry x="810" y="214" width="60" height="60" as="geometry" />
        </mxCell>
        <mxCell id="fAuRe4YFzYjmmBLXa14k-11" value="Consumer" style="text;html=1;align=center;verticalAlign=middle;whiteSpace=wrap;rounded=0;fontFamily=Atkinson Hyperlegible;fontSource=https%3A%2F%2Ffonts.googleapis.com%2Fcss%3Ffamily%3DAtkinson%2BHyperlegible;" parent="1" vertex="1">
          <mxGeometry x="810" y="264" width="60" height="30" as="geometry" />
        </mxCell>
        <mxCell id="CABz82fo70wp0chgf_nB-13" style="edgeStyle=orthogonalEdgeStyle;rounded=0;orthogonalLoop=1;jettySize=auto;html=1;dashed=1;" parent="1" source="fAuRe4YFzYjmmBLXa14k-12" target="fAuRe4YFzYjmmBLXa14k-30" edge="1">
          <mxGeometry relative="1" as="geometry">
            <Array as="points">
              <mxPoint x="766" y="330" />
              <mxPoint x="766" y="330" />
            </Array>
          </mxGeometry>
        </mxCell>
        <mxCell id="fAuRe4YFzYjmmBLXa14k-12" value="" style="shape=image;verticalLabelPosition=bottom;labelBackgroundColor=none;verticalAlign=top;aspect=fixed;imageAspect=0;image=data:image/svg+xml,PHN2ZyB4bWxucz0iaHR0cDovL3d3dy53My5vcmcvMjAwMC9zdmciIHZpZXdCb3g9IjAgMCA4NTAgODUwIiB2ZXJzaW9uPSIxLjEiIGhlaWdodD0iODUwcHQiIHdpZHRoPSI4NTBwdCI+JiN4YTsgICAgPHN0eWxlIHR5cGU9InRleHQvY3NzIj4mI3hhOyAgICAgICAgLnRvcCB7JiN4YTsgICAgICAgIGZpbGw6IzZiNzI4MDsmI3hhOyAgICAgICAgfSYjeGE7ICAgICAgICAubGVmdCB7JiN4YTsgICAgICAgIGZpbGw6ICM0YjU1NjM7JiN4YTsgICAgICAgIH0mI3hhOyAgICAgICAgLnJpZ2h0IHsmI3hhOyAgICAgICAgZmlsbDojMWYyOTM3OyYjeGE7ICAgICAgICB9JiN4YTsmI3hhOyAgICAgICAgQG1lZGlhIChwcmVmZXJzLWNvbG9yLXNjaGVtZTogZGFyaykgeyYjeGE7ICAgICAgICAudG9wIHsmI3hhOyAgICAgICAgZmlsbDojZjlmYWZiOyYjeGE7ICAgICAgICB9JiN4YTsgICAgICAgIC5sZWZ0IHsmI3hhOyAgICAgICAgZmlsbDogI2U1ZTdlYjsmI3hhOyAgICAgICAgfSYjeGE7ICAgICAgICAucmlnaHQgeyYjeGE7ICAgICAgICBmaWxsOiAjOWNhM2FmOyYjeGE7ICAgICAgICB9JiN4YTsgICAgICAgIH0mI3hhOyAgICA8L3N0eWxlPiYjeGE7ICAgIDxnPiYjeGE7ICAgICAgICA8cGF0aCBkPSJNIDIzMCAyODAgbCAxNTcuMTggNzIuMzUyIGMgMjAuNjY4IDkuNTE1NiA1NC40OTYgOS41MTU2IDc1LjE0NSAwIGwgMTMyLjY0IC02MS4wNTUgbCAyMTcuNTMgLTEwMy43NCBjIC00LjU3NDIgLTMuNDMzNiAtOS4yNSAtNi41MTU2IC0xNC4xOTEgLTguNzczNCBsIC0zMTcuMDkgLTE0Ni4wMSBjIC0zMC45OTIgLTE0LjI3NyAtODEuNzQ2IC0xNC4yNzcgLTExMi43NiAwIGwgLTMxNy4xOSAxNDYuMDEgYyAtNS4wNzAzIDIuMzE2NCAtOS44NjcyIDUuNTIzNCAtMTQuNTQzIDkuMDYyNSB6IiBjbGFzcz0idG9wIi8+JiN4YTsgICAgICAgIDxwYXRoIGQ9Im0gNDIzLjM0IDQyMC45NiBjIDAgLTIyLjgwMSAtMTYuOTAyIC00OS4xNiAtMzcuNTc0IC01OC42OTUgbCAtMjM5LjQyIC0xMTAuMTUgYyAtMC4yMDcgLTAuMDgyIC0wLjM3MTEgLTAuMjUgLTAuNTc4MSAtMC4zNTE2IGwgLTEwOC4yNSAtNDkuODgzIHYgMzcyLjI1IGMgMCAzNC4xMzcgMjUuMzg3IDczLjczOCA1Ni4zOTggODguMDM1IGwgMzE3LjE5IDE0Ni4wMyBjIDIuODEyNSAxLjMwNDcgNS45NTcgMi4zMzk4IDkuMDYyNSAzLjM5NDUgbCAzLjE0NDUgLTE5My44IGwgMC4wMDM5IC0xOTYuODIgeiIgY2xhc3M9ImxlZnQiLz4mI3hhOyAgICAgICAgPHBhdGggZD0ibSA3MDguNTkgMjUwLjk2IGMgLTAuNDMzNiAwLjIyNjYgLTAuODA4NiAwLjUzOTEgLTEuMjgxMiAwLjc2NTYgbCAtMjM5LjQ2IDExMC4yMSBjIC0yMC42OTEgOS40OTYxIC0zNy41NzQgMzUuOTE4IC0zNy41NzQgNTguNjc2IHYgMTYyLjEyIGwgMC40NzY2IC0wLjAxOTUgbCAtMC43NDYxIDIyOS44IGMgNC40Njg4IC0xLjM0MzggOC43MTA5IC0yLjkzNzUgMTIuNjIxIC00LjczODMgbCAzMTcuMTcgLTE0Ni4wMyBjIDMwLjk5MiAtMTQuMjc3IDU2LjM5OCAtNTMuODc1IDU2LjM5OCAtODguMDM1IGwgLTAuMDYyNSAtMzcyLjM5IHoiIGNsYXNzPSJyaWdodCIvPiYjeGE7ICAgIDwvZz4mI3hhOzwvc3ZnPg==;shadow=1;textShadow=1;fontFamily=Atkinson Hyperlegible;fontSource=https%3A%2F%2Ffonts.googleapis.com%2Fcss%3Ffamily%3DAtkinson%2BHyperlegible;" parent="1" vertex="1">
          <mxGeometry x="810" y="294" width="60" height="60" as="geometry" />
        </mxCell>
        <mxCell id="fAuRe4YFzYjmmBLXa14k-13" value="Consumer" style="text;html=1;align=center;verticalAlign=middle;whiteSpace=wrap;rounded=0;fontFamily=Atkinson Hyperlegible;fontSource=https%3A%2F%2Ffonts.googleapis.com%2Fcss%3Ffamily%3DAtkinson%2BHyperlegible;" parent="1" vertex="1">
          <mxGeometry x="810" y="344" width="60" height="30" as="geometry" />
        </mxCell>
        <mxCell id="CABz82fo70wp0chgf_nB-4" style="edgeStyle=orthogonalEdgeStyle;rounded=0;orthogonalLoop=1;jettySize=auto;html=1;endArrow=open;endFill=0;" parent="1" source="fAuRe4YFzYjmmBLXa14k-16" target="t3a4mZQS9Fm-7r2ZpYrf-1" edge="1">
          <mxGeometry relative="1" as="geometry">
            <Array as="points">
              <mxPoint x="517" y="244" />
              <mxPoint x="517" y="274" />
            </Array>
            <mxPoint x="543.1399999999999" y="273.9655172413793" as="targetPoint" />
          </mxGeometry>
        </mxCell>
        <mxCell id="CABz82fo70wp0chgf_nB-10" style="edgeStyle=orthogonalEdgeStyle;rounded=0;orthogonalLoop=1;jettySize=auto;html=1;dashed=1;" parent="1" source="fAuRe4YFzYjmmBLXa14k-16" target="fAuRe4YFzYjmmBLXa14k-4" edge="1">
          <mxGeometry relative="1" as="geometry">
            <Array as="points">
              <mxPoint x="422" y="249" />
              <mxPoint x="422" y="249" />
            </Array>
          </mxGeometry>
        </mxCell>
        <mxCell id="fAuRe4YFzYjmmBLXa14k-16" value="" style="shape=image;verticalLabelPosition=bottom;labelBackgroundColor=none;verticalAlign=top;aspect=fixed;imageAspect=0;image=data:image/svg+xml,PHN2ZyB4bWxucz0iaHR0cDovL3d3dy53My5vcmcvMjAwMC9zdmciIHZpZXdCb3g9IjAgMCA4NTAgODUwIiB2ZXJzaW9uPSIxLjEiIGhlaWdodD0iODUwcHQiIHdpZHRoPSI4NTBwdCI+JiN4YTsgICAgPHN0eWxlIHR5cGU9InRleHQvY3NzIj4mI3hhOyAgICAgICAgLnRvcCB7JiN4YTsgICAgICAgIGZpbGw6IzZiNzI4MDsmI3hhOyAgICAgICAgfSYjeGE7ICAgICAgICAubGVmdCB7JiN4YTsgICAgICAgIGZpbGw6ICM0YjU1NjM7JiN4YTsgICAgICAgIH0mI3hhOyAgICAgICAgLnJpZ2h0IHsmI3hhOyAgICAgICAgZmlsbDojMWYyOTM3OyYjeGE7ICAgICAgICB9JiN4YTsmI3hhOyAgICAgICAgQG1lZGlhIChwcmVmZXJzLWNvbG9yLXNjaGVtZTogZGFyaykgeyYjeGE7ICAgICAgICAudG9wIHsmI3hhOyAgICAgICAgZmlsbDojZjlmYWZiOyYjeGE7ICAgICAgICB9JiN4YTsgICAgICAgIC5sZWZ0IHsmI3hhOyAgICAgICAgZmlsbDogI2U1ZTdlYjsmI3hhOyAgICAgICAgfSYjeGE7ICAgICAgICAucmlnaHQgeyYjeGE7ICAgICAgICBmaWxsOiAjOWNhM2FmOyYjeGE7ICAgICAgICB9JiN4YTsgICAgICAgIH0mI3hhOyAgICA8L3N0eWxlPiYjeGE7ICAgIDxnPiYjeGE7ICAgICAgICA8cGF0aCBkPSJNIDIzMCAyODAgbCAxNTcuMTggNzIuMzUyIGMgMjAuNjY4IDkuNTE1NiA1NC40OTYgOS41MTU2IDc1LjE0NSAwIGwgMTMyLjY0IC02MS4wNTUgbCAyMTcuNTMgLTEwMy43NCBjIC00LjU3NDIgLTMuNDMzNiAtOS4yNSAtNi41MTU2IC0xNC4xOTEgLTguNzczNCBsIC0zMTcuMDkgLTE0Ni4wMSBjIC0zMC45OTIgLTE0LjI3NyAtODEuNzQ2IC0xNC4yNzcgLTExMi43NiAwIGwgLTMxNy4xOSAxNDYuMDEgYyAtNS4wNzAzIDIuMzE2NCAtOS44NjcyIDUuNTIzNCAtMTQuNTQzIDkuMDYyNSB6IiBjbGFzcz0idG9wIi8+JiN4YTsgICAgICAgIDxwYXRoIGQ9Im0gNDIzLjM0IDQyMC45NiBjIDAgLTIyLjgwMSAtMTYuOTAyIC00OS4xNiAtMzcuNTc0IC01OC42OTUgbCAtMjM5LjQyIC0xMTAuMTUgYyAtMC4yMDcgLTAuMDgyIC0wLjM3MTEgLTAuMjUgLTAuNTc4MSAtMC4zNTE2IGwgLTEwOC4yNSAtNDkuODgzIHYgMzcyLjI1IGMgMCAzNC4xMzcgMjUuMzg3IDczLjczOCA1Ni4zOTggODguMDM1IGwgMzE3LjE5IDE0Ni4wMyBjIDIuODEyNSAxLjMwNDcgNS45NTcgMi4zMzk4IDkuMDYyNSAzLjM5NDUgbCAzLjE0NDUgLTE5My44IGwgMC4wMDM5IC0xOTYuODIgeiIgY2xhc3M9ImxlZnQiLz4mI3hhOyAgICAgICAgPHBhdGggZD0ibSA3MDguNTkgMjUwLjk2IGMgLTAuNDMzNiAwLjIyNjYgLTAuODA4NiAwLjUzOTEgLTEuMjgxMiAwLjc2NTYgbCAtMjM5LjQ2IDExMC4yMSBjIC0yMC42OTEgOS40OTYxIC0zNy41NzQgMzUuOTE4IC0zNy41NzQgNTguNjc2IHYgMTYyLjEyIGwgMC40NzY2IC0wLjAxOTUgbCAtMC43NDYxIDIyOS44IGMgNC40Njg4IC0xLjM0MzggOC43MTA5IC0yLjkzNzUgMTIuNjIxIC00LjczODMgbCAzMTcuMTcgLTE0Ni4wMyBjIDMwLjk5MiAtMTQuMjc3IDU2LjM5OCAtNTMuODc1IDU2LjM5OCAtODguMDM1IGwgLTAuMDYyNSAtMzcyLjM5IHoiIGNsYXNzPSJyaWdodCIvPiYjeGE7ICAgIDwvZz4mI3hhOzwvc3ZnPg==;shadow=1;textShadow=1;fontFamily=Atkinson Hyperlegible;fontSource=https%3A%2F%2Ffonts.googleapis.com%2Fcss%3Ffamily%3DAtkinson%2BHyperlegible;" parent="1" vertex="1">
          <mxGeometry x="460" y="229" width="30" height="30" as="geometry" />
        </mxCell>
        <mxCell id="CABz82fo70wp0chgf_nB-5" style="edgeStyle=orthogonalEdgeStyle;rounded=0;orthogonalLoop=1;jettySize=auto;html=1;endArrow=open;endFill=0;" parent="1" source="fAuRe4YFzYjmmBLXa14k-19" target="t3a4mZQS9Fm-7r2ZpYrf-1" edge="1">
          <mxGeometry relative="1" as="geometry">
            <Array as="points">
              <mxPoint x="517" y="324" />
              <mxPoint x="517" y="294" />
            </Array>
            <mxPoint x="543.1399999999999" y="293.9655172413793" as="targetPoint" />
          </mxGeometry>
        </mxCell>
        <mxCell id="CABz82fo70wp0chgf_nB-11" style="edgeStyle=orthogonalEdgeStyle;rounded=0;orthogonalLoop=1;jettySize=auto;html=1;dashed=1;" parent="1" source="fAuRe4YFzYjmmBLXa14k-19" target="fAuRe4YFzYjmmBLXa14k-7" edge="1">
          <mxGeometry relative="1" as="geometry">
            <Array as="points">
              <mxPoint x="423" y="328" />
              <mxPoint x="423" y="328" />
            </Array>
          </mxGeometry>
        </mxCell>
        <mxCell id="fAuRe4YFzYjmmBLXa14k-19" value="" style="shape=image;verticalLabelPosition=bottom;labelBackgroundColor=none;verticalAlign=top;aspect=fixed;imageAspect=0;image=data:image/svg+xml,PHN2ZyB4bWxucz0iaHR0cDovL3d3dy53My5vcmcvMjAwMC9zdmciIHZpZXdCb3g9IjAgMCA4NTAgODUwIiB2ZXJzaW9uPSIxLjEiIGhlaWdodD0iODUwcHQiIHdpZHRoPSI4NTBwdCI+JiN4YTsgICAgPHN0eWxlIHR5cGU9InRleHQvY3NzIj4mI3hhOyAgICAgICAgLnRvcCB7JiN4YTsgICAgICAgIGZpbGw6IzZiNzI4MDsmI3hhOyAgICAgICAgfSYjeGE7ICAgICAgICAubGVmdCB7JiN4YTsgICAgICAgIGZpbGw6ICM0YjU1NjM7JiN4YTsgICAgICAgIH0mI3hhOyAgICAgICAgLnJpZ2h0IHsmI3hhOyAgICAgICAgZmlsbDojMWYyOTM3OyYjeGE7ICAgICAgICB9JiN4YTsmI3hhOyAgICAgICAgQG1lZGlhIChwcmVmZXJzLWNvbG9yLXNjaGVtZTogZGFyaykgeyYjeGE7ICAgICAgICAudG9wIHsmI3hhOyAgICAgICAgZmlsbDojZjlmYWZiOyYjeGE7ICAgICAgICB9JiN4YTsgICAgICAgIC5sZWZ0IHsmI3hhOyAgICAgICAgZmlsbDogI2U1ZTdlYjsmI3hhOyAgICAgICAgfSYjeGE7ICAgICAgICAucmlnaHQgeyYjeGE7ICAgICAgICBmaWxsOiAjOWNhM2FmOyYjeGE7ICAgICAgICB9JiN4YTsgICAgICAgIH0mI3hhOyAgICA8L3N0eWxlPiYjeGE7ICAgIDxnPiYjeGE7ICAgICAgICA8cGF0aCBkPSJNIDIzMCAyODAgbCAxNTcuMTggNzIuMzUyIGMgMjAuNjY4IDkuNTE1NiA1NC40OTYgOS41MTU2IDc1LjE0NSAwIGwgMTMyLjY0IC02MS4wNTUgbCAyMTcuNTMgLTEwMy43NCBjIC00LjU3NDIgLTMuNDMzNiAtOS4yNSAtNi41MTU2IC0xNC4xOTEgLTguNzczNCBsIC0zMTcuMDkgLTE0Ni4wMSBjIC0zMC45OTIgLTE0LjI3NyAtODEuNzQ2IC0xNC4yNzcgLTExMi43NiAwIGwgLTMxNy4xOSAxNDYuMDEgYyAtNS4wNzAzIDIuMzE2NCAtOS44NjcyIDUuNTIzNCAtMTQuNTQzIDkuMDYyNSB6IiBjbGFzcz0idG9wIi8+JiN4YTsgICAgICAgIDxwYXRoIGQ9Im0gNDIzLjM0IDQyMC45NiBjIDAgLTIyLjgwMSAtMTYuOTAyIC00OS4xNiAtMzcuNTc0IC01OC42OTUgbCAtMjM5LjQyIC0xMTAuMTUgYyAtMC4yMDcgLTAuMDgyIC0wLjM3MTEgLTAuMjUgLTAuNTc4MSAtMC4zNTE2IGwgLTEwOC4yNSAtNDkuODgzIHYgMzcyLjI1IGMgMCAzNC4xMzcgMjUuMzg3IDczLjczOCA1Ni4zOTggODguMDM1IGwgMzE3LjE5IDE0Ni4wMyBjIDIuODEyNSAxLjMwNDcgNS45NTcgMi4zMzk4IDkuMDYyNSAzLjM5NDUgbCAzLjE0NDUgLTE5My44IGwgMC4wMDM5IC0xOTYuODIgeiIgY2xhc3M9ImxlZnQiLz4mI3hhOyAgICAgICAgPHBhdGggZD0ibSA3MDguNTkgMjUwLjk2IGMgLTAuNDMzNiAwLjIyNjYgLTAuODA4NiAwLjUzOTEgLTEuMjgxMiAwLjc2NTYgbCAtMjM5LjQ2IDExMC4yMSBjIC0yMC42OTEgOS40OTYxIC0zNy41NzQgMzUuOTE4IC0zNy41NzQgNTguNjc2IHYgMTYyLjEyIGwgMC40NzY2IC0wLjAxOTUgbCAtMC43NDYxIDIyOS44IGMgNC40Njg4IC0xLjM0MzggOC43MTA5IC0yLjkzNzUgMTIuNjIxIC00LjczODMgbCAzMTcuMTcgLTE0Ni4wMyBjIDMwLjk5MiAtMTQuMjc3IDU2LjM5OCAtNTMuODc1IDU2LjM5OCAtODguMDM1IGwgLTAuMDYyNSAtMzcyLjM5IHoiIGNsYXNzPSJyaWdodCIvPiYjeGE7ICAgIDwvZz4mI3hhOzwvc3ZnPg==;shadow=1;textShadow=1;fontFamily=Atkinson Hyperlegible;fontSource=https%3A%2F%2Ffonts.googleapis.com%2Fcss%3Ffamily%3DAtkinson%2BHyperlegible;" parent="1" vertex="1">
          <mxGeometry x="460" y="309" width="30" height="30" as="geometry" />
        </mxCell>
        <mxCell id="CABz82fo70wp0chgf_nB-9" style="edgeStyle=orthogonalEdgeStyle;rounded=0;orthogonalLoop=1;jettySize=auto;html=1;endArrow=classic;endFill=1;" parent="1" source="fAuRe4YFzYjmmBLXa14k-27" target="fAuRe4YFzYjmmBLXa14k-10" edge="1">
          <mxGeometry relative="1" as="geometry">
            <Array as="points">
              <mxPoint x="773" y="238" />
              <mxPoint x="773" y="238" />
            </Array>
          </mxGeometry>
        </mxCell>
        <mxCell id="fAuRe4YFzYjmmBLXa14k-27" value="" style="shape=image;verticalLabelPosition=bottom;labelBackgroundColor=none;verticalAlign=top;aspect=fixed;imageAspect=0;image=data:image/svg+xml,PHN2ZyB4bWxucz0iaHR0cDovL3d3dy53My5vcmcvMjAwMC9zdmciIHZpZXdCb3g9IjAgMCA4NTAgODUwIiB2ZXJzaW9uPSIxLjEiIGhlaWdodD0iODUwcHQiIHdpZHRoPSI4NTBwdCI+JiN4YTsgICAgPHN0eWxlIHR5cGU9InRleHQvY3NzIj4mI3hhOyAgICAgICAgLnRvcCB7JiN4YTsgICAgICAgIGZpbGw6IzZiNzI4MDsmI3hhOyAgICAgICAgfSYjeGE7ICAgICAgICAubGVmdCB7JiN4YTsgICAgICAgIGZpbGw6ICM0YjU1NjM7JiN4YTsgICAgICAgIH0mI3hhOyAgICAgICAgLnJpZ2h0IHsmI3hhOyAgICAgICAgZmlsbDojMWYyOTM3OyYjeGE7ICAgICAgICB9JiN4YTsmI3hhOyAgICAgICAgQG1lZGlhIChwcmVmZXJzLWNvbG9yLXNjaGVtZTogZGFyaykgeyYjeGE7ICAgICAgICAudG9wIHsmI3hhOyAgICAgICAgZmlsbDojZjlmYWZiOyYjeGE7ICAgICAgICB9JiN4YTsgICAgICAgIC5sZWZ0IHsmI3hhOyAgICAgICAgZmlsbDogI2U1ZTdlYjsmI3hhOyAgICAgICAgfSYjeGE7ICAgICAgICAucmlnaHQgeyYjeGE7ICAgICAgICBmaWxsOiAjOWNhM2FmOyYjeGE7ICAgICAgICB9JiN4YTsgICAgICAgIH0mI3hhOyAgICA8L3N0eWxlPiYjeGE7ICAgIDxnPiYjeGE7ICAgICAgICA8cGF0aCBkPSJNIDIzMCAyODAgbCAxNTcuMTggNzIuMzUyIGMgMjAuNjY4IDkuNTE1NiA1NC40OTYgOS41MTU2IDc1LjE0NSAwIGwgMTMyLjY0IC02MS4wNTUgbCAyMTcuNTMgLTEwMy43NCBjIC00LjU3NDIgLTMuNDMzNiAtOS4yNSAtNi41MTU2IC0xNC4xOTEgLTguNzczNCBsIC0zMTcuMDkgLTE0Ni4wMSBjIC0zMC45OTIgLTE0LjI3NyAtODEuNzQ2IC0xNC4yNzcgLTExMi43NiAwIGwgLTMxNy4xOSAxNDYuMDEgYyAtNS4wNzAzIDIuMzE2NCAtOS44NjcyIDUuNTIzNCAtMTQuNTQzIDkuMDYyNSB6IiBjbGFzcz0idG9wIi8+JiN4YTsgICAgICAgIDxwYXRoIGQ9Im0gNDIzLjM0IDQyMC45NiBjIDAgLTIyLjgwMSAtMTYuOTAyIC00OS4xNiAtMzcuNTc0IC01OC42OTUgbCAtMjM5LjQyIC0xMTAuMTUgYyAtMC4yMDcgLTAuMDgyIC0wLjM3MTEgLTAuMjUgLTAuNTc4MSAtMC4zNTE2IGwgLTEwOC4yNSAtNDkuODgzIHYgMzcyLjI1IGMgMCAzNC4xMzcgMjUuMzg3IDczLjczOCA1Ni4zOTggODguMDM1IGwgMzE3LjE5IDE0Ni4wMyBjIDIuODEyNSAxLjMwNDcgNS45NTcgMi4zMzk4IDkuMDYyNSAzLjM5NDUgbCAzLjE0NDUgLTE5My44IGwgMC4wMDM5IC0xOTYuODIgeiIgY2xhc3M9ImxlZnQiLz4mI3hhOyAgICAgICAgPHBhdGggZD0ibSA3MDguNTkgMjUwLjk2IGMgLTAuNDMzNiAwLjIyNjYgLTAuODA4NiAwLjUzOTEgLTEuMjgxMiAwLjc2NTYgbCAtMjM5LjQ2IDExMC4yMSBjIC0yMC42OTEgOS40OTYxIC0zNy41NzQgMzUuOTE4IC0zNy41NzQgNTguNjc2IHYgMTYyLjEyIGwgMC40NzY2IC0wLjAxOTUgbCAtMC43NDYxIDIyOS44IGMgNC40Njg4IC0xLjM0MzggOC43MTA5IC0yLjkzNzUgMTIuNjIxIC00LjczODMgbCAzMTcuMTcgLTE0Ni4wMyBjIDMwLjk5MiAtMTQuMjc3IDU2LjM5OCAtNTMuODc1IDU2LjM5OCAtODguMDM1IGwgLTAuMDYyNSAtMzcyLjM5IHoiIGNsYXNzPSJyaWdodCIvPiYjeGE7ICAgIDwvZz4mI3hhOzwvc3ZnPg==;shadow=1;textShadow=1;fontFamily=Atkinson Hyperlegible;fontSource=https%3A%2F%2Ffonts.googleapis.com%2Fcss%3Ffamily%3DAtkinson%2BHyperlegible;" parent="1" vertex="1">
          <mxGeometry x="700" y="229" width="30" height="30" as="geometry" />
        </mxCell>
        <mxCell id="CABz82fo70wp0chgf_nB-8" style="edgeStyle=orthogonalEdgeStyle;rounded=0;orthogonalLoop=1;jettySize=auto;html=1;endArrow=classic;endFill=1;" parent="1" source="fAuRe4YFzYjmmBLXa14k-30" target="fAuRe4YFzYjmmBLXa14k-12" edge="1">
          <mxGeometry relative="1" as="geometry">
            <Array as="points">
              <mxPoint x="779" y="317" />
              <mxPoint x="779" y="317" />
            </Array>
          </mxGeometry>
        </mxCell>
        <mxCell id="fAuRe4YFzYjmmBLXa14k-30" value="" style="shape=image;verticalLabelPosition=bottom;labelBackgroundColor=none;verticalAlign=top;aspect=fixed;imageAspect=0;image=data:image/svg+xml,PHN2ZyB4bWxucz0iaHR0cDovL3d3dy53My5vcmcvMjAwMC9zdmciIHZpZXdCb3g9IjAgMCA4NTAgODUwIiB2ZXJzaW9uPSIxLjEiIGhlaWdodD0iODUwcHQiIHdpZHRoPSI4NTBwdCI+JiN4YTsgICAgPHN0eWxlIHR5cGU9InRleHQvY3NzIj4mI3hhOyAgICAgICAgLnRvcCB7JiN4YTsgICAgICAgIGZpbGw6IzZiNzI4MDsmI3hhOyAgICAgICAgfSYjeGE7ICAgICAgICAubGVmdCB7JiN4YTsgICAgICAgIGZpbGw6ICM0YjU1NjM7JiN4YTsgICAgICAgIH0mI3hhOyAgICAgICAgLnJpZ2h0IHsmI3hhOyAgICAgICAgZmlsbDojMWYyOTM3OyYjeGE7ICAgICAgICB9JiN4YTsmI3hhOyAgICAgICAgQG1lZGlhIChwcmVmZXJzLWNvbG9yLXNjaGVtZTogZGFyaykgeyYjeGE7ICAgICAgICAudG9wIHsmI3hhOyAgICAgICAgZmlsbDojZjlmYWZiOyYjeGE7ICAgICAgICB9JiN4YTsgICAgICAgIC5sZWZ0IHsmI3hhOyAgICAgICAgZmlsbDogI2U1ZTdlYjsmI3hhOyAgICAgICAgfSYjeGE7ICAgICAgICAucmlnaHQgeyYjeGE7ICAgICAgICBmaWxsOiAjOWNhM2FmOyYjeGE7ICAgICAgICB9JiN4YTsgICAgICAgIH0mI3hhOyAgICA8L3N0eWxlPiYjeGE7ICAgIDxnPiYjeGE7ICAgICAgICA8cGF0aCBkPSJNIDIzMCAyODAgbCAxNTcuMTggNzIuMzUyIGMgMjAuNjY4IDkuNTE1NiA1NC40OTYgOS41MTU2IDc1LjE0NSAwIGwgMTMyLjY0IC02MS4wNTUgbCAyMTcuNTMgLTEwMy43NCBjIC00LjU3NDIgLTMuNDMzNiAtOS4yNSAtNi41MTU2IC0xNC4xOTEgLTguNzczNCBsIC0zMTcuMDkgLTE0Ni4wMSBjIC0zMC45OTIgLTE0LjI3NyAtODEuNzQ2IC0xNC4yNzcgLTExMi43NiAwIGwgLTMxNy4xOSAxNDYuMDEgYyAtNS4wNzAzIDIuMzE2NCAtOS44NjcyIDUuNTIzNCAtMTQuNTQzIDkuMDYyNSB6IiBjbGFzcz0idG9wIi8+JiN4YTsgICAgICAgIDxwYXRoIGQ9Im0gNDIzLjM0IDQyMC45NiBjIDAgLTIyLjgwMSAtMTYuOTAyIC00OS4xNiAtMzcuNTc0IC01OC42OTUgbCAtMjM5LjQyIC0xMTAuMTUgYyAtMC4yMDcgLTAuMDgyIC0wLjM3MTEgLTAuMjUgLTAuNTc4MSAtMC4zNTE2IGwgLTEwOC4yNSAtNDkuODgzIHYgMzcyLjI1IGMgMCAzNC4xMzcgMjUuMzg3IDczLjczOCA1Ni4zOTggODguMDM1IGwgMzE3LjE5IDE0Ni4wMyBjIDIuODEyNSAxLjMwNDcgNS45NTcgMi4zMzk4IDkuMDYyNSAzLjM5NDUgbCAzLjE0NDUgLTE5My44IGwgMC4wMDM5IC0xOTYuODIgeiIgY2xhc3M9ImxlZnQiLz4mI3hhOyAgICAgICAgPHBhdGggZD0ibSA3MDguNTkgMjUwLjk2IGMgLTAuNDMzNiAwLjIyNjYgLTAuODA4NiAwLjUzOTEgLTEuMjgxMiAwLjc2NTYgbCAtMjM5LjQ2IDExMC4yMSBjIC0yMC42OTEgOS40OTYxIC0zNy41NzQgMzUuOTE4IC0zNy41NzQgNTguNjc2IHYgMTYyLjEyIGwgMC40NzY2IC0wLjAxOTUgbCAtMC43NDYxIDIyOS44IGMgNC40Njg4IC0xLjM0MzggOC43MTA5IC0yLjkzNzUgMTIuNjIxIC00LjczODMgbCAzMTcuMTcgLTE0Ni4wMyBjIDMwLjk5MiAtMTQuMjc3IDU2LjM5OCAtNTMuODc1IDU2LjM5OCAtODguMDM1IGwgLTAuMDYyNSAtMzcyLjM5IHoiIGNsYXNzPSJyaWdodCIvPiYjeGE7ICAgIDwvZz4mI3hhOzwvc3ZnPg==;shadow=1;textShadow=1;fontFamily=Atkinson Hyperlegible;fontSource=https%3A%2F%2Ffonts.googleapis.com%2Fcss%3Ffamily%3DAtkinson%2BHyperlegible;" parent="1" vertex="1">
          <mxGeometry x="700" y="309" width="30" height="30" as="geometry" />
        </mxCell>
        <mxCell id="CABz82fo70wp0chgf_nB-6" style="edgeStyle=orthogonalEdgeStyle;rounded=0;orthogonalLoop=1;jettySize=auto;html=1;endArrow=open;endFill=0;" parent="1" source="t3a4mZQS9Fm-7r2ZpYrf-1" target="fAuRe4YFzYjmmBLXa14k-27" edge="1">
          <mxGeometry relative="1" as="geometry">
            <Array as="points">
              <mxPoint x="673" y="274" />
              <mxPoint x="673" y="244" />
            </Array>
            <mxPoint x="646.8600000000001" y="273.9655172413793" as="sourcePoint" />
          </mxGeometry>
        </mxCell>
        <mxCell id="CABz82fo70wp0chgf_nB-7" style="edgeStyle=orthogonalEdgeStyle;rounded=0;orthogonalLoop=1;jettySize=auto;html=1;endArrow=open;endFill=0;" parent="1" source="t3a4mZQS9Fm-7r2ZpYrf-1" target="fAuRe4YFzYjmmBLXa14k-30" edge="1">
          <mxGeometry relative="1" as="geometry">
            <Array as="points">
              <mxPoint x="673" y="294" />
              <mxPoint x="673" y="324" />
            </Array>
            <mxPoint x="646.8600000000001" y="293.9655172413793" as="sourcePoint" />
          </mxGeometry>
        </mxCell>
        <mxCell id="t3a4mZQS9Fm-7r2ZpYrf-1" value="" style="shape=image;verticalLabelPosition=bottom;labelBackgroundColor=none;verticalAlign=top;aspect=fixed;imageAspect=0;image=data:image/svg+xml,PHN2ZyB4bWxucz0iaHR0cDovL3d3dy53My5vcmcvMjAwMC9zdmciIHZpZXdCb3g9IjAgMCAxMDAwIDg1MCIgdmVyc2lvbj0iMS4xIiBoZWlnaHQ9Ijg1MHB0IiB3aWR0aD0iMTAwMHB0Ij4mI3hhOyAgICA8c3R5bGUgdHlwZT0idGV4dC9jc3MiPiYjeGE7ICAgICAgICAudG9wIHsmI3hhOyAgICAgICAgZmlsbDojNmI3MjgwOyYjeGE7ICAgICAgICBzdHJva2U6IGJsYWNrOyYjeGE7ICAgICAgICBzdHJva2Utd2lkdGg6IDI7JiN4YTsgICAgICAgIH0mI3hhOyAgICAgICAgLmxlZnQgeyYjeGE7ICAgICAgICBmaWxsOiAjNGI1NTYzOyYjeGE7ICAgICAgICBzdHJva2U6IGJsYWNrOyYjeGE7ICAgICAgICBzdHJva2Utd2lkdGg6IDI7JiN4YTsgICAgICAgIH0mI3hhOyAgICAgICAgLnJpZ2h0IHsmI3hhOyAgICAgICAgZmlsbDojMWYyOTM3OyYjeGE7ICAgICAgICBzdHJva2U6IGJsYWNrOyYjeGE7ICAgICAgICBzdHJva2Utd2lkdGg6IDI7JiN4YTsgICAgICAgIH0mI3hhOyAgICAgICAgLmVudmVsb3BlIHsmI3hhOyAgICAgICAgZmlsbDogI2U1ZTdlYjsmI3hhOyAgICAgICAgc3Ryb2tlOiAjMzc0MTUxOyYjeGE7ICAgICAgICBzdHJva2Utd2lkdGg6IDE0OyYjeGE7ICAgICAgICB9JiN4YTsmI3hhOyAgICAgICAgQG1lZGlhIChwcmVmZXJzLWNvbG9yLXNjaGVtZTogZGFyaykgeyYjeGE7ICAgICAgICAudG9wIHsmI3hhOyAgICAgICAgZmlsbDojZjlmYWZiOyYjeGE7ICAgICAgICBzdHJva2U6IHdoaXRlOyYjeGE7ICAgICAgICBzdHJva2Utd2lkdGg6IDI7JiN4YTsgICAgICAgIH0mI3hhOyAgICAgICAgLmxlZnQgeyYjeGE7ICAgICAgICBmaWxsOiAjZTVlN2ViOyYjeGE7ICAgICAgICBzdHJva2U6IHdoaXRlOyYjeGE7ICAgICAgICBzdHJva2Utd2lkdGg6IDI7JiN4YTsgICAgICAgIH0mI3hhOyAgICAgICAgLnJpZ2h0IHsmI3hhOyAgICAgICAgZmlsbDogIzljYTNhZjsmI3hhOyAgICAgICAgc3Ryb2tlOiB3aGl0ZTsmI3hhOyAgICAgICAgc3Ryb2tlLXdpZHRoOiAyOyYjeGE7ICAgICAgICB9JiN4YTsgICAgICAgIC5lbnZlbG9wZSB7JiN4YTsgICAgICAgIGZpbGw6ICNmOWZhZmI7JiN4YTsgICAgICAgIHN0cm9rZTogIzM3NDE1MTsmI3hhOyAgICAgICAgc3Ryb2tlLXdpZHRoOiA4OyYjeGE7ICAgICAgICB9JiN4YTsgICAgICAgIH0mI3hhOyAgICA8L3N0eWxlPiYjeGE7ICAgIDxnPiYjeGE7ICAgICAgICA8cGF0aCBkPSJNIDIzMCAyODAgbCAxNTcuMTggNzIuMzUyIGMgMjAuNjY4IDkuNTE1NiA1NC40OTYgOS41MTU2IDc1LjE0NSAwIGwgMTMyLjY0IC02MS4wNTUgbCAyMTcuNTMgLTEwMy43NCBjIC00LjU3NDIgLTMuNDMzNiAtOS4yNSAtNi41MTU2IC0xNC4xOTEgLTguNzczNCBsIC0zMTcuMDkgLTE0Ni4wMSBjIC0zMC45OTIgLTE0LjI3NyAtODEuNzQ2IC0xNC4yNzcgLTExMi43NiAwIGwgLTMxNy4xOSAxNDYuMDEgYyAtNS4wNzAzIDIuMzE2NCAtOS44NjcyIDUuNTIzNCAtMTQuNTQzIDkuMDYyNSB6IiBjbGFzcz0idG9wIi8+JiN4YTsgICAgICAgIDxwYXRoIGQ9Im0gNDIzLjM0IDQyMC45NiBjIDAgLTIyLjgwMSAtMTYuOTAyIC00OS4xNiAtMzcuNTc0IC01OC42OTUgbCAtMjM5LjQyIC0xMTAuMTUgYyAtMC4yMDcgLTAuMDgyIC0wLjM3MTEgLTAuMjUgLTAuNTc4MSAtMC4zNTE2IGwgLTEwOC4yNSAtNDkuODgzIHYgMzcyLjI1IGMgMCAzNC4xMzcgMjUuMzg3IDczLjczOCA1Ni4zOTggODguMDM1IGwgMzE3LjE5IDE0Ni4wMyBjIDIuODEyNSAxLjMwNDcgNS45NTcgMi4zMzk4IDkuMDYyNSAzLjM5NDUgbCAzLjE0NDUgLTE5My44IGwgMC4wMDM5IC0xOTYuODIgeiIgY2xhc3M9ImxlZnQiLz4mI3hhOyAgICAgICAgPHBhdGggZD0ibSA3MDguNTkgMjUwLjk2IGMgLTAuNDMzNiAwLjIyNjYgLTAuODA4NiAwLjUzOTEgLTEuMjgxMiAwLjc2NTYgbCAtMjM5LjQ2IDExMC4yMSBjIC0yMC42OTEgOS40OTYxIC0zNy41NzQgMzUuOTE4IC0zNy41NzQgNTguNjc2IHYgMTYyLjEyIGwgMC40NzY2IC0wLjAxOTUgbCAtMC43NDYxIDIyOS44IGMgNC40Njg4IC0xLjM0MzggOC43MTA5IC0yLjkzNzUgMTIuNjIxIC00LjczODMgbCAzMTcuMTcgLTE0Ni4wMyBjIDMwLjk5MiAtMTQuMjc3IDU2LjM5OCAtNTMuODc1IDU2LjM5OCAtODguMDM1IGwgLTAuMDYyNSAtMzcyLjM5IHoiIGNsYXNzPSJyaWdodCIvPiYjeGE7ICAgICAgICA8cGF0aCBkPSJtIDg3MS42NzIgODMxLjk4IEMgODk4LjI5MiA4MzEuOTggOTI0LjkxMiA4MDUuMzYgOTI0LjkxMiA3NzguNzQgTCA5MjQuOTEyIDU2My4xMTggQyA5MjQuOTEyIDUzNi40OTggOTAwLjk1NCA1MDkuODc4IDg3NC4zMzQgNTA5Ljg3OCBMIDM4OS44NSA1MDkuODc4IEMgMzYzLjIzIDUwOS44NzggMzM5LjI3MiA1MzkuMTYgMzM5LjI3MiA1NjUuNzggTCAzMzkuMjcyIDc3OC43NCBDIDMzOS4yNzIgODE2LjAwOCAzNjMuMjMgODMxLjk4IDQwMy4xNiA4MzEuOTggTCA4NzEuNjcyIDgzMS45OCBNIDM1Mi41ODIgNTMxLjE3NCBMIDU0OS41NyA2MzcuNjU0IEMgNjI5LjQzIDY3Ny41ODQgNjI5LjQzIDY3Ny41ODQgNzA5LjI5IDYzNy42NTQgTCA5MTEuNjAyIDUzMS4xNzQgTSA1NDkuNTcgNjM3LjY1NCBMIDM1Mi41ODIgODE2LjAwOCBNIDcwOS4yOSA2MzcuNjU0IEwgOTA2LjI3OCA4MTYuMDA4IHoiIGNsYXNzPSJlbnZlbG9wZSIvPiYjeGE7ICAgIDwvZz4mI3hhOzwvc3ZnPg==;fontFamily=Atkinson Hyperlegible;fontSource=https%3A%2F%2Ffonts.googleapis.com%2Fcss%3Ffamily%3DAtkinson%2BHyperlegible;shadow=1;textShadow=1;" parent="1" vertex="1">
          <mxGeometry x="556.77" y="254" width="76.47" height="65" as="geometry" />
        </mxCell>
        <mxCell id="t3a4mZQS9Fm-7r2ZpYrf-2" value="Message Broker" style="text;align=center;verticalAlign=middle;rounded=0;fontFamily=Atkinson Hyperlegible;fontSource=https%3A%2F%2Ffonts.googleapis.com%2Fcss%3Ffamily%3DAtkinson%2BHyperlegible;html=1;whiteSpace=wrap;fontColor=default;" parent="1" vertex="1">
          <mxGeometry x="545" y="316.5" width="100" height="30" as="geometry" />
        </mxCell>
      </root>
    </mxGraphModel>
  </diagram>
  <diagram id="_WU_NqaUM5sKKe2bmdHc" name="Page-4">
    <mxGraphModel dx="2074" dy="1106" grid="1" gridSize="10" guides="1" tooltips="1" connect="1" arrows="1" fold="1" page="1" pageScale="1" pageWidth="850" pageHeight="1100" math="0" shadow="0">
      <root>
        <mxCell id="0" />
        <mxCell id="1" parent="0" />
        <mxCell id="B8F9Bd1Oav2ZlgKsSwGv-1" value="" style="shape=image;verticalLabelPosition=bottom;labelBackgroundColor=default;verticalAlign=top;aspect=fixed;imageAspect=0;image=data:image/svg+xml,PHN2ZyB4bWxucz0iaHR0cDovL3d3dy53My5vcmcvMjAwMC9zdmciIHZpZXdCb3g9IjAgMCA4NTAgODUwIiB2ZXJzaW9uPSIxLjEiIGhlaWdodD0iODUwcHQiIHdpZHRoPSI4NTBwdCI+JiN4YTsgICAgPGRlZnM+JiN4YTsgICAgICAgIDxzdHlsZSB0eXBlPSJ0ZXh0L2NzcyI+JiN4YTsgICAgICAgICAgICAudG9wIHsmI3hhOyAgICAgICAgICAgIGZpbGw6IzZiNzI4MDsmI3hhOyAgICAgICAgICAgIHN0cm9rZTogYmxhY2s7JiN4YTsgICAgICAgICAgICBzdHJva2Utd2lkdGg6IDI7JiN4YTsgICAgICAgICAgICB9JiN4YTsgICAgICAgICAgICAubGVmdCB7JiN4YTsgICAgICAgICAgICBmaWxsOiAjNGI1NTYzOyYjeGE7ICAgICAgICAgICAgc3Ryb2tlOiBibGFjazsmI3hhOyAgICAgICAgICAgIHN0cm9rZS13aWR0aDogMjsmI3hhOyAgICAgICAgICAgIH0mI3hhOyAgICAgICAgICAgIC5yaWdodCB7JiN4YTsgICAgICAgICAgICBmaWxsOiMxZjI5Mzc7JiN4YTsgICAgICAgICAgICBzdHJva2U6IGJsYWNrOyYjeGE7ICAgICAgICAgICAgc3Ryb2tlLXdpZHRoOiAyOyYjeGE7ICAgICAgICAgICAgfSYjeGE7ICAgICAgICAgICAgQG1lZGlhIChwcmVmZXJzLWNvbG9yLXNjaGVtZTogZGFyaykgeyYjeGE7ICAgICAgICAgICAgLnRvcCB7JiN4YTsgICAgICAgICAgICBmaWxsOiNmOWZhZmI7JiN4YTsgICAgICAgICAgICBzdHJva2U6IHdoaXRlOyYjeGE7ICAgICAgICAgICAgc3Ryb2tlLXdpZHRoOiAyOyYjeGE7ICAgICAgICAgICAgfSYjeGE7ICAgICAgICAgICAgLmxlZnQgeyYjeGE7ICAgICAgICAgICAgZmlsbDogI2U1ZTdlYjsmI3hhOyAgICAgICAgICAgIHN0cm9rZTogd2hpdGU7JiN4YTsgICAgICAgICAgICBzdHJva2Utd2lkdGg6IDI7JiN4YTsgICAgICAgICAgICB9JiN4YTsgICAgICAgICAgICAucmlnaHQgeyYjeGE7ICAgICAgICAgICAgZmlsbDogIzljYTNhZjsmI3hhOyAgICAgICAgICAgIHN0cm9rZTogd2hpdGU7JiN4YTsgICAgICAgICAgICBzdHJva2Utd2lkdGg6IDI7JiN4YTsgICAgICAgICAgICB9JiN4YTsgICAgICAgICAgICB9JiN4YTsgICAgICAgIDwvc3R5bGU+JiN4YTsgICAgPC9kZWZzPiYjeGE7ICAgIDxnPiYjeGE7ICAgICAgICA8cGF0aCBkPSJNIDIzMCAyODAgbCAxNTcuMTggNzIuMzUyIGMgMjAuNjY4IDkuNTE1NiA1NC40OTYgOS41MTU2IDc1LjE0NSAwIGwgMTMyLjY0IC02MS4wNTUgbCAyMTcuNTMgLTEwMy43NCBjIC00LjU3NDIgLTMuNDMzNiAtOS4yNSAtNi41MTU2IC0xNC4xOTEgLTguNzczNCBsIC0zMTcuMDkgLTE0Ni4wMSBjIC0zMC45OTIgLTE0LjI3NyAtODEuNzQ2IC0xNC4yNzcgLTExMi43NiAwIGwgLTMxNy4xOSAxNDYuMDEgYyAtNS4wNzAzIDIuMzE2NCAtOS44NjcyIDUuNTIzNCAtMTQuNTQzIDkuMDYyNSB6IiBjbGFzcz0idG9wIi8+JiN4YTsgICAgICAgIDxwYXRoIGQ9Im0gNDIzLjM0IDQyMC45NiBjIDAgLTIyLjgwMSAtMTYuOTAyIC00OS4xNiAtMzcuNTc0IC01OC42OTUgbCAtMjM5LjQyIC0xMTAuMTUgYyAtMC4yMDcgLTAuMDgyIC0wLjM3MTEgLTAuMjUgLTAuNTc4MSAtMC4zNTE2IGwgLTEwOC4yNSAtNDkuODgzIHYgMzcyLjI1IGMgMCAzNC4xMzcgMjUuMzg3IDczLjczOCA1Ni4zOTggODguMDM1IGwgMzE3LjE5IDE0Ni4wMyBjIDIuODEyNSAxLjMwNDcgNS45NTcgMi4zMzk4IDkuMDYyNSAzLjM5NDUgbCAzLjE0NDUgLTE5My44IGwgMC4wMDM5IC0xOTYuODIgeiIgY2xhc3M9ImxlZnQiLz4mI3hhOyAgICAgICAgPHBhdGggZD0ibSA3MDguNTkgMjUwLjk2IGMgLTAuNDMzNiAwLjIyNjYgLTAuODA4NiAwLjUzOTEgLTEuMjgxMiAwLjc2NTYgbCAtMjM5LjQ2IDExMC4yMSBjIC0yMC42OTEgOS40OTYxIC0zNy41NzQgMzUuOTE4IC0zNy41NzQgNTguNjc2IHYgMTYyLjEyIGwgMC40NzY2IC0wLjAxOTUgbCAtMC43NDYxIDIyOS44IGMgNC40Njg4IC0xLjM0MzggOC43MTA5IC0yLjkzNzUgMTIuNjIxIC00LjczODMgbCAzMTcuMTcgLTE0Ni4wMyBjIDMwLjk5MiAtMTQuMjc3IDU2LjM5OCAtNTMuODc1IDU2LjM5OCAtODguMDM1IGwgLTAuMDYyNSAtMzcyLjM5IHoiIGNsYXNzPSJyaWdodCIvPiYjeGE7ICAgIDwvZz4mI3hhOzwvc3ZnPg==;" vertex="1" parent="1">
          <mxGeometry x="10" y="10" width="160" height="160" as="geometry" />
        </mxCell>
      </root>
    </mxGraphModel>
  </diagram>
</mxfile>
